<svg width="25" height="24" viewBox="0 0 25 24" fill="none" xmlns="http://www.w3.org/2000/svg">
<path d="M12.6667 3C7.16675 3 2.66675 6.6 2.66675 11C2.66675 13.1 3.66675 15.1 5.46675 16.5C5.46675 17.1 5.06675 18.7 2.66675 21C2.66675 21 6.16675 21 9.16675 18.5C10.2667 18.8 11.4667 19 12.6667 19C18.1667 19 22.6667 15.4 22.6667 11C22.6667 6.6 18.1667 3 12.6667 3ZM13.6667 15H11.6667V13H13.6667V15ZM15.4667 10C15.1667 10.4 14.7667 10.6 14.3667 10.8C14.0667 11 13.9667 11.1 13.8667 11.3C13.6667 11.5 13.6667 11.7 13.6667 12H11.6667C11.6667 11.5 11.7667 11.2 11.9667 10.9C12.1667 10.7 12.5667 10.4 13.0667 10.1C13.3667 10 13.5667 9.8 13.6667 9.6C13.7667 9.4 13.8667 9.1 13.8667 8.9C13.8667 8.6 13.7667 8.4 13.5667 8.2C13.3667 8 13.0667 7.9 12.7667 7.9C12.4667 7.9 12.2667 8 12.0667 8.1C11.8667 8.2 11.7667 8.4 11.7667 8.7H9.76675C9.86675 8 10.1667 7.4 10.6667 7C11.1667 6.6 11.8667 6.5 12.7667 6.5C13.6667 6.5 14.4667 6.7 14.9667 7.1C15.4667 7.5 15.7667 8.1 15.7667 8.8C15.8667 9.2 15.7667 9.6 15.4667 10Z" fill="#FEFEFE"/>
</svg>
