<svg width="84" height="41" viewBox="0 0 84 41" fill="none" xmlns="http://www.w3.org/2000/svg">
<path fill-rule="evenodd" clip-rule="evenodd" d="M5.81526 5.84113C9.47321 2.12741 14.4238 0.0515044 19.5779 0.0700946L46.5428 0.167364L30.9375 17.5142C28.3057 20.0847 26.5615 21.4326 16.5449 20.6295L25.8618 10.3431L19.5409 10.3203C17.0401 10.3112 14.638 11.2986 12.8632 13.1005C11.0883 14.9025 10.086 17.3515 10.0767 19.9089C10.0675 22.4662 11.0521 24.9224 12.814 26.7371C14.5758 28.5518 16.9709 29.4867 19.4717 29.4957L19.4717 29.4958L27.3416 29.5241C25.1858 31.7118 19.7136 36.1601 12.8348 38.6092C10.1801 37.6173 7.74327 36.0357 5.71389 33.9455C2.08283 30.2055 0.0535981 25.1434 0.0726084 19.8728C0.0916188 14.6022 2.15731 9.55485 5.81526 5.84113Z" fill="#EDB76B"/>
<path fill-rule="evenodd" clip-rule="evenodd" d="M64.2953 0.231319L57.6381 0.207308C54.6781 0.545281 52.1825 2.62818 50.1569 4.92196C50.1569 4.92196 31.5898 25.6345 27.0693 29.802C22.5489 33.9695 20.0558 35.3551 12.6471 38.6057C18.2745 40.2751 21.422 40.2606 27.0331 39.843C31.3403 38.8823 33.2944 37.7737 39.1667 31.6586L52.5359 16.5057C54.6288 14.2122 56.3152 12.7539 57.8663 11.5044C58.5109 10.9852 59.499 10.6223 60.9291 10.6359L64.2577 10.6479L64.2577 10.6476C66.6606 10.6745 68.9577 11.677 70.6518 13.4403C72.3617 15.22 73.3172 17.6288 73.3081 20.1369C73.2991 22.645 72.3262 25.0469 70.6035 26.8142C68.8809 28.5814 66.5491 29.6655 64.122 29.6567L64.1219 29.6568L49.5607 29.6587L40.1451 40.0496L64.0845 40.0464L64.0847 39.9766C69.1853 39.995 74.0846 37.9189 77.7047 34.2051C81.3248 30.4912 83.3692 25.4438 83.3882 20.1732C83.4072 14.9027 81.3993 9.84063 77.806 6.10076C74.2286 2.37731 69.3716 0.268091 64.2953 0.231471L64.2953 0.231319Z" fill="#E09143"/>
</svg>
