<svg width="161" height="71" viewBox="0 0 161 71" fill="none" xmlns="http://www.w3.org/2000/svg">
<path fill-rule="evenodd" clip-rule="evenodd" d="M37.5727 0.134609L89.356 0.321386L59.3984 30.6688C54.3458 35.1656 50.9972 37.5234 31.7609 36.1117L49.6467 18.1162L37.508 18.0724L37.508 18.0725C32.7053 18.0551 28.0931 19.7815 24.6858 22.9338C21.2784 26.0861 19.3551 30.3713 19.3389 34.8467C19.3228 39.3221 21.2151 43.621 24.5997 46.7979C27.9616 49.9534 32.5228 51.5902 37.2906 51.629L52.5005 51.6838C48.3619 55.5107 37.8558 63.2923 24.647 67.574C19.5483 65.8367 14.8677 63.0674 10.9692 59.4081C3.9938 52.8609 0.0937736 44.0009 0.127042 34.7774C0.16031 25.5539 4.12415 16.7223 11.1466 10.2255C18.169 3.72875 27.6747 0.0989595 37.5727 0.13466L37.5727 0.134609Z" fill="#FAFAFA"/>
<path fill-rule="evenodd" clip-rule="evenodd" d="M123.448 0.444431L110.663 0.398319C104.979 0.987954 100.188 4.63149 96.2994 8.64437C96.2994 8.64437 60.656 44.88 51.9775 52.1703C43.299 59.4606 38.5122 61.8839 24.2866 67.5679C35.0944 70.4929 41.1389 70.4693 51.9141 69.742C60.1849 68.0635 63.9369 66.1246 75.2104 55.4268L100.875 28.9174C104.893 24.905 108.131 22.3541 111.109 20.1684C112.346 19.2601 114.243 18.6258 116.99 18.6503L123.382 18.6734L123.382 18.6729C127.996 18.7215 132.408 20.4773 135.663 23.564C138.948 26.6795 140.784 30.8956 140.768 35.2847C140.752 39.6739 138.886 43.8766 135.578 46.9683C132.271 50.06 127.794 51.9557 123.133 51.9389L123.133 51.939L95.1697 51.9335L77.0944 70.1118L123.067 70.1209L123.068 69.9987C132.863 70.034 142.27 66.4039 149.22 59.9069C156.17 53.4098 160.093 44.5781 160.126 35.3546C160.159 26.131 156.3 17.2713 149.397 10.7243C142.525 4.20602 133.196 0.511895 123.448 0.444689L123.448 0.444431Z" fill="white"/>
</svg>
