<svg width="472" height="440" viewBox="0 0 472 440" fill="none" xmlns="http://www.w3.org/2000/svg">
<g clip-path="url(#clip0_313_3512)">
<path d="M352.094 423.003C345.561 416.88 341.593 407.207 342.634 397.79C343.674 388.373 350.12 379.716 358.481 377.717C366.842 375.717 376.374 381.252 378.913 390.312C380.311 372.846 381.921 354.648 390.293 339.774C397.874 326.306 411.004 316.669 425.234 314.945C439.464 313.22 454.446 319.732 463.32 332.19C472.195 344.647 474.368 362.758 468.152 377.061C463.574 387.597 455.138 395.438 446.299 401.817C417.739 422.257 383.484 430.569 349.838 425.224" fill="#F2F2F2"/>
<path d="M449.249 320.093C437.507 330.701 426.736 342.564 417.09 355.513C401.995 375.708 389.779 398.35 380.869 422.651C380.217 424.423 382.812 425.195 383.457 423.442C398.035 383.948 421.308 349.139 451.147 322.198C452.487 320.988 450.578 318.893 449.249 320.093Z" fill="white"/>
<path d="M117.325 427.194H78.5637C77.2539 427.193 75.9982 426.64 75.0721 425.658C74.146 424.676 73.625 423.345 73.6235 421.956V336.537C73.625 335.148 74.146 333.817 75.0721 332.835C75.9982 331.853 77.2539 331.301 78.5637 331.299H117.325C118.634 331.301 119.89 331.853 120.816 332.835C121.742 333.817 122.263 335.148 122.265 336.537V421.956C122.263 423.345 121.742 424.676 120.816 425.658C119.89 426.64 118.634 427.193 117.325 427.194Z" fill="#E09143"/>
<path d="M204.35 427H166.764C165.299 426.998 163.894 426.361 162.857 425.229C161.821 424.096 161.238 422.561 161.237 420.959V255.041C161.238 253.439 161.821 251.904 162.857 250.771C163.894 249.639 165.299 249.002 166.764 249H204.35C205.816 249.002 207.221 249.639 208.257 250.771C209.293 251.904 209.876 253.439 209.878 255.041V420.959C209.876 422.561 209.293 424.096 208.257 425.229C207.221 426.361 205.816 426.998 204.35 427ZM166.764 250.611C165.689 250.612 164.659 251.079 163.899 251.91C163.139 252.74 162.712 253.866 162.711 255.041V420.959C162.712 422.134 163.139 423.26 163.899 424.09C164.659 424.921 165.689 425.388 166.764 425.389H204.35C205.425 425.388 206.455 424.921 207.215 424.09C207.975 423.26 208.403 422.134 208.404 420.959V255.041C208.403 253.866 207.975 252.74 207.215 251.91C206.455 251.079 205.425 250.612 204.35 250.611H166.764Z" fill="#3F3D56"/>
<path d="M291.724 427H254.138C252.673 426.998 251.268 426.362 250.231 425.232C249.195 424.102 248.612 422.569 248.611 420.97V150.03C248.612 148.431 249.195 146.898 250.231 145.768C251.268 144.638 252.673 144.002 254.138 144H291.724C293.19 144.002 294.595 144.638 295.631 145.768C296.667 146.898 297.25 148.431 297.252 150.03V420.97C297.25 422.569 296.667 424.102 295.631 425.232C294.595 426.362 293.19 426.998 291.724 427ZM254.138 145.608C253.063 145.609 252.033 146.076 251.273 146.905C250.513 147.734 250.086 148.857 250.085 150.03V420.97C250.086 422.143 250.513 423.266 251.273 424.095C252.033 424.924 253.063 425.391 254.138 425.392H291.724C292.799 425.391 293.829 424.924 294.589 424.095C295.349 423.266 295.777 422.143 295.778 420.97V150.03C295.777 148.857 295.349 147.734 294.589 146.905C293.829 146.076 292.799 145.609 291.724 145.608H254.138Z" fill="#3F3D56"/>
<path d="M381.487 428H342.726C341.417 427.998 340.161 427.472 339.235 426.535C338.309 425.599 337.788 424.329 337.786 423.005V57.9949C337.788 56.6706 338.309 55.401 339.235 54.4647C340.161 53.5283 341.417 53.0015 342.726 53H381.487C382.797 53.0015 384.053 53.5283 384.979 54.4647C385.905 55.401 386.426 56.6706 386.427 57.9949V423.005C386.426 424.329 385.905 425.599 384.979 426.535C384.053 427.472 382.797 427.998 381.487 428Z" fill="#E09143"/>
<path d="M149.502 191.185C149.637 190.01 149.537 188.816 149.211 187.688C148.884 186.56 148.339 185.526 147.613 184.657C146.887 183.788 145.998 183.106 145.008 182.66C144.019 182.213 142.954 182.013 141.887 182.072L128.972 155.794L126.066 167.076L134.914 191.159C135.123 193.14 135.98 194.967 137.323 196.294C138.665 197.621 140.4 198.356 142.198 198.359C143.996 198.362 145.733 197.634 147.079 196.312C148.425 194.989 149.287 193.165 149.502 191.185Z" fill="#A0616A"/>
<path d="M49.9961 294.941L57.1893 300.766L80.8701 272.761L70.2528 264.163L49.9961 294.941Z" fill="#A0616A"/>
<path d="M66.1865 319.41L43.5773 301.102L49.9546 291.413L63.8285 302.647C66.1452 304.523 67.6952 307.343 68.1374 310.487C68.5796 313.63 67.8779 316.84 66.1865 319.41Z" fill="#2F2E41"/>
<path d="M88.0544 325.776L96.9615 325.775L101.199 287.668L88.053 287.669L88.0544 325.776Z" fill="#A0616A"/>
<path d="M114.14 334.948L86.1464 334.949L86.1459 322.953L103.324 322.952C106.192 322.952 108.943 324.216 110.971 326.465C113 328.715 114.14 331.766 114.14 334.948Z" fill="#2F2E41"/>
<path d="M114.805 177.149C114.805 177.149 119.164 223.888 108.266 256.122L100.275 317.365H86.4707L87.9238 244.84L82.8381 180.373C82.8381 180.373 93.0094 151.362 114.805 177.149Z" fill="#2F2E41"/>
<path d="M67.5814 180.372L82.1117 235.975L53.7776 285.937L67.9447 299.234L100.275 243.228L90.8299 174.731L67.5814 180.372Z" fill="#2F2E41"/>
<path d="M104.636 55.6879C114.491 55.6879 122.48 46.8266 122.48 35.8956C122.48 24.9647 114.491 16.1034 104.636 16.1034C94.7815 16.1034 86.7925 24.9647 86.7925 35.8956C86.7925 46.8266 94.7815 55.6879 104.636 55.6879Z" fill="#A0616A"/>
<path d="M89.74 63.1229C89.74 63.1229 100.638 55.0645 112.989 72.793L116.258 184.402C116.258 184.402 106.813 169.897 87.1972 183.596C67.5813 197.295 63.2222 181.984 63.2222 181.984C63.2222 181.984 49.4184 66.7492 89.74 63.1229Z" fill="#CCCCCC"/>
<path d="M112.109 72.5116C115.244 72.6995 118.205 74.1663 120.422 76.6299C122.64 79.0935 123.959 82.3798 124.124 85.8565L126.429 134.44L141.686 180.373L132.968 188.431L104.633 133.634L98.8324 88.5929C98.5665 86.5285 98.7166 84.4244 99.2718 82.432C99.827 80.4397 100.774 78.6086 102.043 77.0707C103.313 75.5328 104.874 74.3262 106.615 73.5378C108.356 72.7495 110.232 72.399 112.109 72.5116Z" fill="#CCCCCC"/>
<path d="M91.525 50.7418C94.4421 54.1885 99.8597 52.3382 100.24 47.6296C100.27 47.264 100.267 46.8961 100.233 46.531C100.037 44.4453 98.9507 42.5517 99.2109 40.3495C99.2698 39.8014 99.4539 39.2791 99.7458 38.832C102.07 35.3793 107.527 40.3763 109.721 37.2507C111.066 35.3341 109.485 32.3165 110.517 30.1745C111.88 27.3472 115.915 28.7419 118.446 27.1936C121.262 25.4709 121.094 20.679 119.24 17.7643C116.98 14.2097 113.016 12.313 109.102 12.0396C105.188 11.7662 101.301 12.9398 97.6473 14.5193C93.4956 16.3139 89.3786 18.7941 86.8237 22.8433C83.7167 27.7676 83.4177 34.3878 84.9715 40.1458C85.9168 43.6484 89.1428 47.9273 91.525 50.7418Z" fill="#2F2E41"/>
<path d="M471.135 427.658H0.86498C0.635989 427.657 0.416596 427.556 0.254909 427.376C0.093221 427.196 0.00244141 426.953 0.00244141 426.699C0.00244141 426.445 0.093221 426.201 0.254909 426.021C0.416596 425.841 0.635989 425.74 0.86498 425.739H471.135C471.364 425.74 471.583 425.841 471.745 426.021C471.907 426.201 471.997 426.445 471.997 426.699C471.997 426.953 471.907 427.196 471.745 427.376C471.583 427.556 471.364 427.657 471.135 427.658Z" fill="#3F3D56"/>
<path d="M176.129 240.33C176.677 241.54 177.808 242.348 179.003 242.709C180.198 243.069 181.462 243.035 182.698 242.924C186.535 242.582 190.318 241.533 193.838 239.836C195.287 239.137 196.727 238.301 197.776 237.008C198.825 235.715 199.425 233.878 198.967 232.227C191.472 235.451 183.775 238.122 175.948 240.214" fill="#3F3D56"/>
<path d="M172.375 232.625C172.458 234.204 172.547 235.816 173.052 237.312C173.556 238.808 174.559 240.195 175.873 240.627C176.798 240.93 177.759 240.737 178.68 240.541C185.037 239.193 191.511 237.797 197.098 234.203C198.186 233.503 199.295 232.64 199.743 231.274C200.192 229.907 199.885 228.33 199.575 226.861C199.328 225.693 198.903 224.305 197.907 224.011C197.331 223.841 196.756 224.119 196.229 224.387C188.662 228.228 180.703 231.107 172.526 232.957" fill="#E09143"/>
<path d="M188.571 228.603L190.901 229.712C192.35 230.402 194.037 229.641 194.607 228.036C195.003 226.922 195.495 225.849 196.074 224.835C193.711 226.445 191.154 227.72 188.489 228.617" fill="#E6E6E6"/>
<path d="M173.597 233.889L175.83 234.952C177.287 235.645 178.978 234.877 179.557 233.266C179.942 232.194 180.417 231.161 180.976 230.184C178.651 231.767 176.137 233.021 173.517 233.902" fill="#E6E6E6"/>
<path d="M177.004 232.131C181.935 234.478 187.695 232.289 190.212 227.115C190.576 226.367 190.964 225.632 191.375 224.914C186.848 227.998 181.951 230.439 176.848 232.156" fill="#E6E6E6"/>
<path d="M173.39 231.725C172.819 231.959 172.613 232.814 172.894 233.403C173.175 233.992 173.81 234.305 174.42 234.324C175.03 234.342 175.622 234.112 176.182 233.846C177.312 233.31 178.373 232.621 179.431 231.933L188.069 226.32C188.378 226.119 188.713 225.881 188.799 225.501C188.923 224.954 188.418 224.431 187.902 224.377C187.387 224.324 186.894 224.593 186.441 224.864C183.463 226.645 180.682 228.842 177.538 230.243C176.162 230.857 174.726 231.312 173.261 231.598" fill="#FF6884"/>
<path d="M182.013 227.269C181.416 227.412 181.141 228.559 181.38 229.491C181.619 230.422 182.237 231.079 182.853 231.308C183.469 231.537 184.087 231.406 184.674 231.215C185.859 230.828 186.988 230.199 188.113 229.573L197.293 224.458C197.621 224.276 197.979 224.048 198.096 223.536C198.264 222.799 197.793 221.887 197.275 221.639C196.758 221.391 196.238 221.611 195.758 221.846C192.605 223.389 189.619 225.591 186.328 226.539C184.886 226.954 183.397 227.124 181.892 227.045" fill="#FF6884"/>
<path d="M198.226 222.944C190.506 225.133 183.056 228.406 176.09 232.67C175.515 233.022 174.936 233.384 174.299 233.565C173.661 233.747 172.948 233.729 172.358 233.35C171.431 232.753 171.033 231.385 171.172 230.202C171.312 229.02 171.882 227.989 172.482 227.037C174.428 223.947 176.869 221.24 179.788 219.409C182.706 217.578 186.12 216.656 189.498 217.118C192.875 217.58 196.192 219.489 198.387 222.562" fill="#3F3D56"/>
<path d="M262.332 138H283.531V110.739C283.531 109.296 282.19 108.122 280.541 108.122H265.321C263.673 108.122 262.332 109.296 262.332 110.739V138Z" fill="#E6E6E6"/>
<path d="M263.947 136.873H281.916V113.766C281.916 112.543 280.779 111.547 279.382 111.547H266.481C265.084 111.547 263.947 112.543 263.947 113.766V136.873Z" fill="white"/>
<path d="M262.172 106C261.648 106 261.221 106.373 261.221 106.832V109.234C261.221 109.693 261.648 110.066 262.172 110.066H283.691C284.215 110.066 284.641 109.693 284.641 109.234V106.832C284.641 106.373 284.215 106 283.691 106H262.172Z" fill="#3F3D56"/>
<path d="M266.59 133.91C266.344 133.911 266.108 134.015 265.934 134.199C265.76 134.383 265.662 134.633 265.661 134.894C265.662 135.155 265.76 135.405 265.934 135.589C266.108 135.774 266.344 135.878 266.59 135.878H268.327V133.91H266.59Z" fill="#3F3D56"/>
<path d="M269.923 133.91H268.232V135.878H269.923C270.169 135.878 270.404 135.774 270.578 135.589C270.752 135.405 270.85 135.155 270.851 134.894C270.85 134.633 270.752 134.383 270.578 134.199C270.404 134.015 270.169 133.911 269.923 133.91Z" fill="#E09143"/>
<path opacity="0.2" d="M270.528 134.151C270.675 134.329 270.756 134.557 270.756 134.793C270.755 135.054 270.657 135.304 270.483 135.488C270.309 135.673 270.073 135.777 269.827 135.777H268.232V135.878H269.923C270.169 135.878 270.404 135.774 270.578 135.589C270.752 135.405 270.85 135.155 270.851 134.894C270.851 134.753 270.822 134.613 270.766 134.485C270.71 134.357 270.629 134.243 270.528 134.151Z" fill="black"/>
<path d="M274.431 119.084C274.262 118.895 274.029 118.784 273.783 118.777C273.537 118.769 273.299 118.865 273.119 119.043C272.941 119.223 272.836 119.47 272.829 119.73C272.822 119.991 272.912 120.244 273.08 120.435L274.272 121.775L275.623 120.425L274.431 119.084Z" fill="#3F3D56"/>
<path d="M276.717 121.655L275.558 120.351L274.207 121.702L275.366 123.006C275.536 123.195 275.769 123.305 276.015 123.313C276.26 123.321 276.499 123.225 276.679 123.047C276.857 122.867 276.961 122.62 276.969 122.359C276.976 122.099 276.886 121.846 276.717 121.655Z" fill="#E09143"/>
<path opacity="0.2" d="M276.968 122.288C276.946 122.523 276.845 122.742 276.683 122.904C276.503 123.082 276.264 123.178 276.019 123.17C275.773 123.163 275.54 123.052 275.37 122.863L274.276 121.632L274.207 121.702L275.366 123.006C275.536 123.195 275.769 123.305 276.015 123.313C276.26 123.321 276.499 123.225 276.679 123.047C276.775 122.95 276.851 122.832 276.901 122.701C276.951 122.57 276.974 122.429 276.968 122.288Z" fill="black"/>
<path d="M269.485 122.188C269.316 121.999 269.083 121.888 268.837 121.88C268.591 121.873 268.352 121.969 268.173 122.147C267.994 122.326 267.89 122.573 267.882 122.834C267.875 123.095 267.966 123.348 268.134 123.538L269.326 124.879L270.677 123.529L269.485 122.188Z" fill="#3F3D56"/>
<path d="M271.771 124.759L270.612 123.455L269.261 124.805L270.42 126.109C270.589 126.299 270.822 126.409 271.068 126.417C271.314 126.425 271.553 126.329 271.732 126.15C271.911 125.971 272.015 125.724 272.022 125.463C272.03 125.202 271.939 124.949 271.771 124.759Z" fill="#E09143"/>
<path opacity="0.2" d="M272.021 125.392C272 125.627 271.898 125.846 271.736 126.008C271.557 126.186 271.318 126.282 271.072 126.274C270.826 126.266 270.593 126.156 270.424 125.967L269.33 124.736L269.261 124.805L270.42 126.109C270.589 126.299 270.822 126.409 271.068 126.417C271.314 126.424 271.553 126.329 271.732 126.15C271.829 126.053 271.905 125.935 271.955 125.804C272.005 125.674 272.027 125.533 272.021 125.392Z" fill="black"/>
<path d="M274.431 125.078C274.262 124.888 274.029 124.778 273.783 124.77C273.537 124.762 273.299 124.858 273.119 125.037C272.941 125.216 272.836 125.463 272.829 125.724C272.822 125.984 272.912 126.238 273.08 126.428L274.272 127.768L275.623 126.418L274.431 125.078Z" fill="#3F3D56"/>
<path d="M276.717 127.649L275.558 126.345L274.207 127.695L275.366 128.999C275.536 129.188 275.769 129.299 276.015 129.306C276.26 129.314 276.499 129.218 276.679 129.04C276.857 128.861 276.961 128.613 276.969 128.353C276.976 128.092 276.886 127.839 276.717 127.649Z" fill="#E09143"/>
<path opacity="0.2" d="M276.968 128.281C276.946 128.516 276.845 128.735 276.683 128.897C276.503 129.076 276.264 129.171 276.019 129.164C275.773 129.156 275.54 129.045 275.37 128.856L274.276 127.626L274.207 127.695L275.366 128.999C275.536 129.188 275.769 129.299 276.015 129.306C276.26 129.314 276.499 129.218 276.679 129.04C276.775 128.943 276.851 128.825 276.901 128.694C276.951 128.563 276.974 128.422 276.968 128.281Z" fill="black"/>
<path d="M277.449 131.228C277.625 131.046 277.727 130.798 277.731 130.537C277.735 130.276 277.642 130.024 277.472 129.836C277.3 129.649 277.066 129.542 276.82 129.537C276.574 129.533 276.337 129.631 276.159 129.812L274.909 131.092L276.199 132.508L277.449 131.228Z" fill="#3F3D56"/>
<path d="M275.052 133.683L276.268 132.438L274.978 131.022L273.762 132.267C273.586 132.448 273.484 132.697 273.48 132.958C273.476 133.218 273.569 133.47 273.739 133.658C273.911 133.845 274.145 133.953 274.391 133.958C274.637 133.962 274.875 133.863 275.052 133.683Z" fill="#E09143"/>
<path opacity="0.2" d="M274.458 133.955C274.236 133.935 274.029 133.831 273.874 133.661C273.703 133.473 273.61 133.221 273.615 132.96C273.619 132.699 273.72 132.451 273.897 132.269L275.044 131.094L274.978 131.022L273.762 132.267C273.586 132.448 273.484 132.697 273.48 132.958C273.476 133.218 273.569 133.47 273.739 133.658C273.832 133.76 273.944 133.839 274.068 133.89C274.192 133.941 274.325 133.964 274.458 133.955Z" fill="black"/>
<path d="M270.787 128.124C270.963 127.942 271.065 127.694 271.069 127.433C271.073 127.173 270.98 126.921 270.81 126.732C270.638 126.545 270.404 126.438 270.158 126.433C269.912 126.429 269.674 126.528 269.497 126.708L268.247 127.988L269.537 129.404L270.787 128.124Z" fill="#3F3D56"/>
<path d="M268.39 130.579L269.605 129.334L268.315 127.918L267.1 129.163C266.923 129.345 266.822 129.593 266.818 129.854C266.813 130.115 266.906 130.367 267.077 130.555C267.248 130.742 267.483 130.849 267.729 130.854C267.975 130.858 268.212 130.76 268.39 130.579Z" fill="#E09143"/>
<path opacity="0.2" d="M267.796 130.852C267.574 130.831 267.366 130.727 267.212 130.557C267.041 130.369 266.948 130.117 266.952 129.856C266.956 129.596 267.058 129.347 267.234 129.165L268.381 127.991L268.315 127.918L267.1 129.163C266.923 129.345 266.822 129.593 266.818 129.854C266.813 130.115 266.906 130.367 267.077 130.555C267.17 130.656 267.282 130.735 267.406 130.786C267.53 130.838 267.663 130.86 267.796 130.852Z" fill="black"/>
<path d="M280.276 124.378C280.452 124.197 280.554 123.948 280.558 123.688C280.562 123.427 280.469 123.175 280.298 122.987C280.127 122.8 279.893 122.692 279.647 122.688C279.401 122.683 279.163 122.782 278.986 122.963L277.736 124.242L279.026 125.658L280.276 124.378Z" fill="#3F3D56"/>
<path d="M277.879 126.833L279.095 125.588L277.805 124.172L276.589 125.417C276.412 125.599 276.311 125.847 276.307 126.108C276.303 126.369 276.396 126.621 276.566 126.809C276.738 126.996 276.972 127.104 277.218 127.108C277.464 127.113 277.701 127.014 277.879 126.833Z" fill="#E09143"/>
<path opacity="0.2" d="M277.285 127.106C277.063 127.086 276.856 126.981 276.701 126.811C276.53 126.623 276.437 126.371 276.441 126.111C276.446 125.85 276.547 125.601 276.724 125.42L277.871 124.245L277.805 124.172L276.589 125.417C276.412 125.599 276.311 125.847 276.307 126.108C276.303 126.369 276.396 126.621 276.566 126.809C276.659 126.91 276.771 126.989 276.895 127.041C277.019 127.092 277.152 127.114 277.285 127.106Z" fill="black"/>
<path d="M278.167 132.141C277.998 131.952 277.764 131.841 277.519 131.834C277.273 131.826 277.034 131.922 276.854 132.1C276.676 132.28 276.572 132.527 276.564 132.787C276.557 133.048 276.647 133.301 276.816 133.491L278.008 134.832L279.359 133.482L278.167 132.141Z" fill="#3F3D56"/>
<path d="M280.453 134.712L279.293 133.408L277.942 134.759L279.102 136.062C279.271 136.252 279.504 136.362 279.75 136.37C279.996 136.378 280.235 136.282 280.414 136.104C280.593 135.924 280.697 135.677 280.704 135.416C280.711 135.156 280.621 134.903 280.453 134.712Z" fill="#E09143"/>
<path opacity="0.2" d="M280.703 135.345C280.681 135.58 280.58 135.799 280.418 135.961C280.239 136.139 280 136.235 279.754 136.227C279.508 136.22 279.275 136.109 279.106 135.92L278.012 134.689L277.942 134.759L279.102 136.062C279.271 136.252 279.504 136.362 279.75 136.37C279.996 136.378 280.235 136.282 280.414 136.104C280.511 136.007 280.587 135.889 280.637 135.758C280.686 135.627 280.709 135.486 280.703 135.345Z" fill="black"/>
<path d="M271.605 132.034C271.436 131.845 271.203 131.734 270.957 131.727C270.711 131.719 270.472 131.815 270.293 131.993C270.114 132.173 270.01 132.42 270.003 132.68C269.995 132.941 270.086 133.194 270.254 133.384L271.446 134.725L272.797 133.375L271.605 132.034Z" fill="#3F3D56"/>
<path d="M273.891 134.605L272.732 133.301L271.381 134.652L272.54 135.955C272.709 136.145 272.942 136.255 273.188 136.263C273.434 136.271 273.673 136.175 273.853 135.997C274.031 135.817 274.135 135.57 274.143 135.309C274.15 135.049 274.059 134.795 273.891 134.605Z" fill="#E09143"/>
<path opacity="0.2" d="M274.141 135.238C274.12 135.473 274.018 135.692 273.857 135.854C273.677 136.032 273.438 136.128 273.192 136.12C272.946 136.113 272.713 136.002 272.544 135.813L271.45 134.582L271.381 134.652L272.54 135.955C272.709 136.145 272.942 136.255 273.188 136.263C273.434 136.271 273.673 136.175 273.853 135.997C273.949 135.9 274.025 135.782 274.075 135.651C274.125 135.52 274.147 135.379 274.141 135.238Z" fill="black"/>
<path d="M273.452 128.503C273.452 128.83 273.346 129.148 273.15 129.401C272.955 129.655 272.683 129.829 272.381 129.894C272.204 129.932 272.022 129.932 271.846 129.894C271.543 129.829 271.271 129.654 271.076 129.401C270.881 129.147 270.774 128.83 270.774 128.503C270.774 128.176 270.881 127.859 271.076 127.605C271.271 127.352 271.543 127.178 271.846 127.112C272.022 127.074 272.204 127.074 272.381 127.112C272.683 127.177 272.955 127.352 273.15 127.605C273.346 127.859 273.452 128.176 273.452 128.503Z" fill="#E09143"/>
<path opacity="0.2" d="M272.381 127.112V129.894C272.204 129.932 272.022 129.932 271.845 129.894V127.112C272.022 127.074 272.204 127.074 272.381 127.112Z" fill="black"/>
<path d="M274.058 122.831C274.058 123.158 273.951 123.475 273.756 123.729C273.561 123.982 273.289 124.157 272.987 124.222C272.81 124.26 272.628 124.26 272.451 124.222C272.149 124.156 271.877 123.982 271.682 123.729C271.487 123.475 271.38 123.158 271.38 122.831C271.38 122.504 271.487 122.186 271.682 121.933C271.877 121.68 272.149 121.505 272.451 121.44C272.628 121.402 272.81 121.402 272.987 121.44C273.289 121.505 273.561 121.679 273.756 121.933C273.951 122.186 274.058 122.504 274.058 122.831Z" fill="#E09143"/>
<path opacity="0.2" d="M272.986 121.44V124.222C272.81 124.26 272.628 124.26 272.451 124.222V121.44C272.628 121.402 272.81 121.402 272.986 121.44Z" fill="black"/>
<path d="M274.058 130.965C274.058 131.292 273.951 131.609 273.756 131.863C273.561 132.116 273.289 132.29 272.987 132.356C272.81 132.394 272.628 132.394 272.451 132.356C272.149 132.29 271.877 132.116 271.682 131.862C271.487 131.609 271.38 131.292 271.38 130.965C271.38 130.637 271.487 130.32 271.682 130.067C271.877 129.813 272.149 129.639 272.451 129.574C272.628 129.536 272.81 129.536 272.987 129.574C273.289 129.639 273.561 129.813 273.756 130.067C273.951 130.32 274.058 130.637 274.058 130.965Z" fill="#E09143"/>
<path opacity="0.2" d="M272.986 129.574V132.356C272.81 132.394 272.628 132.394 272.451 132.356V129.574C272.628 129.536 272.81 129.536 272.986 129.574Z" fill="black"/>
<path d="M277.389 134.925C277.389 135.252 277.282 135.569 277.087 135.822C276.892 136.076 276.62 136.25 276.318 136.316C276.141 136.353 275.959 136.353 275.782 136.316C275.48 136.25 275.208 136.076 275.013 135.822C274.818 135.569 274.711 135.252 274.711 134.924C274.711 134.597 274.818 134.28 275.013 134.027C275.208 133.773 275.48 133.599 275.782 133.533C275.959 133.496 276.141 133.496 276.318 133.533C276.62 133.599 276.892 133.773 277.087 134.027C277.282 134.28 277.389 134.597 277.389 134.925Z" fill="#E09143"/>
<path opacity="0.2" d="M276.318 133.533V136.316C276.141 136.353 275.959 136.353 275.782 136.316V133.533C275.959 133.496 276.141 133.496 276.318 133.533Z" fill="black"/>
<path d="M280.332 127.639C280.554 127.866 280.696 128.167 280.733 128.492C280.769 128.817 280.699 129.145 280.534 129.422C280.437 129.583 280.31 129.722 280.162 129.831C279.908 130.016 279.601 130.102 279.293 130.076C278.985 130.049 278.696 129.91 278.474 129.683C278.252 129.456 278.11 129.154 278.073 128.829C278.037 128.504 278.107 128.176 278.272 127.9C278.369 127.739 278.496 127.6 278.644 127.491C278.898 127.306 279.205 127.219 279.513 127.246C279.821 127.273 280.11 127.412 280.332 127.639Z" fill="#E09143"/>
<path opacity="0.2" d="M278.644 127.491L280.533 129.422C280.436 129.583 280.31 129.722 280.162 129.831L278.272 127.9C278.369 127.739 278.496 127.6 278.644 127.491Z" fill="black"/>
<path d="M280.736 130.742C280.958 130.97 281.099 131.271 281.136 131.596C281.173 131.921 281.102 132.249 280.937 132.525C280.84 132.687 280.714 132.826 280.565 132.934C280.311 133.12 280.004 133.206 279.697 133.179C279.389 133.152 279.1 133.014 278.877 132.787C278.655 132.559 278.514 132.258 278.477 131.933C278.44 131.608 278.511 131.28 278.676 131.004C278.773 130.842 278.899 130.703 279.048 130.595C279.302 130.409 279.609 130.323 279.916 130.35C280.224 130.377 280.513 130.515 280.736 130.742Z" fill="#E09143"/>
<path opacity="0.2" d="M279.048 130.595L280.937 132.525C280.84 132.687 280.714 132.826 280.565 132.934L278.676 131.004C278.773 130.842 278.899 130.703 279.048 130.595Z" fill="black"/>
<path d="M268.723 131.492C268.945 131.719 269.086 132.02 269.123 132.345C269.16 132.67 269.09 132.998 268.924 133.275C268.827 133.436 268.701 133.575 268.552 133.683C268.298 133.869 267.991 133.955 267.684 133.928C267.376 133.901 267.087 133.763 266.864 133.536C266.642 133.309 266.501 133.007 266.464 132.682C266.427 132.357 266.498 132.029 266.663 131.753C266.76 131.591 266.886 131.453 267.035 131.344C267.289 131.158 267.596 131.072 267.904 131.099C268.211 131.126 268.501 131.264 268.723 131.492Z" fill="#E09143"/>
<path opacity="0.2" d="M267.035 131.344L268.924 133.275C268.827 133.436 268.701 133.575 268.552 133.683L266.663 131.753C266.76 131.592 266.886 131.453 267.035 131.344Z" fill="black"/>
<path opacity="0.2" d="M264.401 106H263.897V109.96H264.401V106Z" fill="black"/>
<path opacity="0.2" d="M267.329 106H266.824V109.96H267.329V106Z" fill="black"/>
<path opacity="0.2" d="M270.256 106H269.752V109.96H270.256V106Z" fill="black"/>
<path opacity="0.2" d="M273.184 106H272.679V109.96H273.184V106Z" fill="black"/>
<path opacity="0.2" d="M276.111 106H275.606V109.96H276.111V106Z" fill="black"/>
<path opacity="0.2" d="M279.039 106H278.534V109.96H279.039V106Z" fill="black"/>
<path opacity="0.2" d="M281.966 106H281.461V109.96H281.966V106Z" fill="black"/>
<path d="M372.146 35.8231C372.276 46.1981 368.237 48.4149 361.722 46.244C356.21 44.4073 351.298 42.1842 351.298 35.8231C351.298 29.462 354.648 20.0547 361.722 23.2084C368.051 19.3692 375.321 28.4675 372.146 35.8231Z" fill="#FF6584"/>
<path d="M361.347 23.4669C360.515 21.7941 360.458 19.7504 361.23 18.0376C361.919 16.5119 363.282 15.376 364.784 15.0186C365.602 14.8242 365.951 16.2117 365.131 16.4069C363.964 16.6845 363.28 21.9904 362.721 23.1626C362.118 24.4236 361.856 21.502 362.472 22.7403C362.876 23.5528 361.751 24.2801 361.347 23.4669Z" fill="#3F3D56"/>
</g>
<defs>
<clipPath id="clip0_313_3512">
<rect width="472" height="416" fill="white" transform="translate(0 12)"/>
</clipPath>
</defs>
</svg>
