<svg width="472" height="349" viewBox="0 0 472 349" fill="none" xmlns="http://www.w3.org/2000/svg">
<g clip-path="url(#clip0_313_3601)">
<path d="M116.372 11.6136C119.045 11.6136 121.211 9.0138 121.211 5.8068C121.211 2.59979 119.045 0 116.372 0C113.699 0 111.532 2.59979 111.532 5.8068C111.532 9.0138 113.699 11.6136 116.372 11.6136Z" fill="#3F3D56"/>
<path d="M133.09 11.6136C135.763 11.6136 137.929 9.0138 137.929 5.8068C137.929 2.59979 135.763 0 133.09 0C130.417 0 128.25 2.59979 128.25 5.8068C128.25 9.0138 130.417 11.6136 133.09 11.6136Z" fill="#3F3D56"/>
<path d="M149.808 11.6136C152.481 11.6136 154.648 9.0138 154.648 5.8068C154.648 2.59979 152.481 0 149.808 0C147.135 0 144.969 2.59979 144.969 5.8068C144.969 9.0138 147.135 11.6136 149.808 11.6136Z" fill="#3F3D56"/>
<path d="M168.871 10.3963C168.723 10.3963 168.574 10.3287 168.462 10.1943L165.197 6.27631C164.979 6.01524 164.979 5.59806 165.197 5.33699L168.462 1.41935C168.684 1.15435 169.047 1.15009 169.272 1.40886C169.498 1.66829 169.502 2.09367 169.281 2.35867L166.407 5.80665L169.281 9.25496C169.502 9.51996 169.498 9.94534 169.272 10.2048C169.16 10.3327 169.016 10.3963 168.871 10.3963Z" fill="#3F3D56"/>
<path d="M174.359 10.3963C174.214 10.3963 174.07 10.3327 173.959 10.2048C173.732 9.94535 173.729 9.5203 173.95 9.25496L176.823 5.80665L173.95 2.35867C173.729 2.09367 173.732 1.66829 173.959 1.40886C174.184 1.14911 174.547 1.15403 174.768 1.41936L178.033 5.337C178.251 5.59806 178.251 6.01525 178.033 6.27631L174.768 10.1943C174.656 10.3288 174.507 10.3963 174.359 10.3963Z" fill="#3F3D56"/>
<path d="M345.188 0.672302H339.116C338.424 0.672302 337.863 1.33054 337.863 2.1433V9.27664C337.863 10.0894 338.424 10.7476 339.116 10.7476H345.188C345.881 10.7476 346.447 10.0894 346.447 9.27664V2.1433C346.447 1.33054 345.881 0.672302 345.188 0.672302Z" fill="#3F3D56"/>
<path d="M330.309 0.672302H324.237C323.545 0.672302 322.984 1.33054 322.984 2.1433V9.27664C322.984 10.0894 323.545 10.7476 324.237 10.7476H330.309C331.001 10.7476 331.568 10.0894 331.568 9.27664V2.1433C331.568 1.33054 331.001 0.672302 330.309 0.672302Z" fill="#3F3D56"/>
<path d="M359.209 1.00812H353.137C352.445 1.00812 351.884 1.66636 351.884 2.47912V9.61245C351.884 10.4252 352.445 11.0835 353.137 11.0835H359.209C359.901 11.0835 360.468 10.4252 360.468 9.61245V2.47912C360.468 1.66636 359.901 1.00812 359.209 1.00812Z" fill="#3F3D56"/>
<path d="M267.69 3.72174H219.155C218.308 3.72174 217.627 4.52777 217.627 5.51518C217.627 6.50258 218.308 7.30857 219.155 7.30857H267.69C268.531 7.30857 269.218 6.50254 269.218 5.51518C269.218 4.52781 268.531 3.72174 267.69 3.72174Z" fill="#3F3D56"/>
<path d="M369.138 28.1433H102.862C102.291 28.129 101.838 27.5741 101.851 26.9039C101.862 26.2539 102.309 25.7303 102.862 25.7164H369.138C369.709 25.7307 370.161 26.2856 370.149 26.9558C370.137 27.6058 369.691 28.1294 369.138 28.1433Z" fill="#CACACA"/>
<path d="M326.225 45.2937H306.525C305.045 45.2937 303.845 46.7016 303.845 48.4383V48.4383C303.845 50.1751 305.045 51.583 306.525 51.583H326.225C327.704 51.583 328.904 50.1751 328.904 48.4383C328.904 46.7016 327.704 45.2937 326.225 45.2937Z" fill="#E09143"/>
<path d="M293.798 57.8723H338.951C340.43 57.8723 341.63 59.2802 341.63 61.0169C341.63 62.7536 340.43 64.1615 338.951 64.1615H293.798C292.319 64.1615 291.119 62.7536 291.119 61.0169C291.119 59.2802 292.319 57.8723 293.798 57.8723Z" fill="#E6E6E6"/>
<path d="M338.951 70.4508H293.798C292.319 70.4508 291.119 71.8587 291.119 73.5954V73.5954C291.119 75.3322 292.319 76.7401 293.798 76.7401H338.951C340.43 76.7401 341.63 75.3322 341.63 73.5954C341.63 71.8587 340.43 70.4508 338.951 70.4508Z" fill="#E6E6E6"/>
<path d="M110.959 215.946H98.5228C98.1885 215.946 96.3476 214.803 96.3476 213.393V205.284C96.2881 199.151 113.395 198.75 113.459 205.284V213.393C113.459 214.803 112.16 215.946 110.959 215.946Z" fill="#E6E6E6"/>
<path d="M111.602 199.788C110.999 199.535 110.358 199.427 109.719 199.471C109.89 199.405 110.047 199.297 110.18 199.154C110.063 199.148 109.947 199.13 109.833 199.099C109.707 199.071 109.589 199.009 109.488 198.918C109.386 198.824 109.332 198.675 109.343 198.524C109.366 198.338 109.514 198.186 109.499 197.999C109.481 197.785 109.271 197.681 109.159 197.512C109.018 197.249 109.042 196.909 109.218 196.678C109.325 196.532 109.456 196.413 109.603 196.327C109.355 196.252 109.094 196.257 108.847 196.34C109.111 196.1 109.229 195.699 109.146 195.319C109.006 194.847 108.676 194.487 108.264 194.36C107.857 194.24 107.436 194.2 107.019 194.242C107.374 194.114 107.32 193.461 107.049 193.163C106.778 192.866 106.39 192.742 106.134 192.426C105.878 192.11 105.898 191.436 106.267 191.383L106.222 191.229C105.488 190.907 104.67 191.345 104.396 192.207C104.373 192.281 104.354 192.356 104.339 192.433C104.272 192.927 104.398 193.473 104.186 193.908C103.917 194.462 103.264 194.525 102.723 194.463C102.192 194.303 101.629 194.393 101.154 194.715C100.761 195.099 100.708 195.784 101.035 196.245C101.216 196.501 101.488 196.645 101.772 196.635C101.416 196.638 101.062 196.693 100.717 196.799L101.049 196.95C101.123 196.976 101.191 197.021 101.249 197.081C101.307 197.144 101.325 197.243 101.293 197.329C101.24 197.441 101.103 197.438 100.995 197.418L100.274 197.291C100.417 197.347 100.494 197.529 100.447 197.698C100.399 197.866 100.244 197.957 100.1 197.901C100.064 197.886 100.03 197.863 100.001 197.832C100.075 197.933 100.135 198.048 100.178 198.172C100.22 198.298 100.208 198.441 100.144 198.555C99.9976 198.712 99.7818 198.743 99.6073 198.631C99.5486 198.605 99.4895 198.574 99.43 198.546C99.4312 198.57 99.4328 198.595 99.4353 198.619C99.4751 198.944 99.6294 199.235 99.8606 199.42C99.5338 199.465 99.2328 199.651 99.0165 199.942C98.6412 200.489 98.6186 201.261 98.9609 201.837C98.5972 201.648 98.1986 201.571 97.8025 201.612C97.3952 201.671 97.09 202.078 97.0925 202.56C97.1582 203.15 97.7805 203.365 98.2835 203.438C102.239 204.01 106.239 204.009 110.194 203.437C110.731 203.394 111.258 203.237 111.747 202.973C112.242 202.698 112.583 202.145 112.65 201.507C112.629 200.738 112.215 200.06 111.602 199.788Z" fill="#E09143"/>
<path d="M114.538 206.622C114.448 206.163 114.099 205.838 113.698 205.84C113.315 205.852 112.974 206.173 112.598 206.102C112.287 206.044 112.042 205.725 111.728 205.774C111.441 205.818 111.287 206.148 111.072 206.325H110.523C110.308 206.127 110.203 205.726 109.906 205.614C109.459 205.445 109.1 206.037 108.632 206.142C108.361 206.177 108.087 206.116 107.846 205.966C107.61 205.815 107.354 205.713 107.088 205.665C106.85 205.623 106.613 205.745 106.478 205.979C106.493 205.812 106.307 205.647 106.118 205.637C105.908 205.646 105.703 205.72 105.525 205.851C105.346 205.983 105.139 206.052 104.927 206.052C104.46 206.004 104.23 205.362 103.759 205.355C103.167 205.346 102.93 206.337 102.344 206.252C102.04 206.208 101.876 205.884 101.604 205.745C101.316 205.641 101.008 205.638 100.718 205.735L99.3329 206.039C98.9268 206.171 98.4985 206.176 98.0904 206.054C97.7932 205.927 97.5046 205.654 97.1982 205.758C96.9313 205.849 96.8011 206.2 96.5185 206.218C96.338 206.191 96.164 206.121 96.0074 206.012C95.7078 205.888 95.3739 205.987 95.1605 206.263C95.0053 207.005 94.9802 207.776 95.0866 208.529C95.0824 208.69 95.0932 208.85 95.1189 209.008L96.5123 215.552C96.6761 216.556 97.0989 217.282 97.9696 217.282H111.512C112.383 217.282 113.131 216.556 113.295 215.552L114.688 209.008C114.691 208.991 114.692 208.974 114.695 208.957C114.728 208.174 114.675 207.389 114.538 206.622Z" fill="#CCCCCC"/>
<path opacity="0.2" d="M97.9809 206.129L98.2517 210.26C98.3419 211.637 98.2083 212.995 98.2986 214.372C98.3494 215.147 98.6241 215.942 98.6749 216.718C98.6809 216.809 98.8029 216.81 98.7969 216.718L98.5261 212.587L98.2554 208.456L98.1029 206.129C98.0969 206.038 97.9749 206.037 97.9809 206.129Z" fill="black"/>
<path opacity="0.2" d="M100.333 206.293L100.438 210.363L100.544 214.434L100.603 216.719C100.605 216.811 100.727 216.812 100.725 216.719L100.619 212.649L100.514 208.578L100.454 206.293C100.452 206.201 100.33 206.2 100.333 206.293Z" fill="black"/>
<path opacity="0.2" d="M102.611 206.537L102.579 210.471L102.547 214.381L102.529 216.598C102.53 216.638 102.558 216.669 102.592 216.667C102.624 216.666 102.65 216.636 102.651 216.598L102.683 212.664L102.715 208.754L102.733 206.537C102.732 206.497 102.704 206.466 102.67 206.468C102.638 206.469 102.612 206.499 102.611 206.537Z" fill="black"/>
<path opacity="0.2" d="M104.332 206.416L104.399 210.399L104.465 214.358L104.503 216.599C104.504 216.639 104.532 216.67 104.566 216.669C104.598 216.667 104.624 216.637 104.625 216.599L104.558 212.617L104.492 208.658L104.454 206.416C104.453 206.377 104.425 206.346 104.391 206.347C104.359 206.349 104.333 206.379 104.332 206.416Z" fill="black"/>
<path opacity="0.2" d="M106.841 206.253L106.917 210.342L106.993 214.431L107.036 216.719C107.037 216.759 107.066 216.79 107.099 216.788C107.131 216.787 107.157 216.757 107.158 216.719L107.082 212.63L107.005 208.542L106.963 206.253C106.961 206.213 106.933 206.183 106.899 206.184C106.868 206.186 106.842 206.216 106.841 206.253Z" fill="black"/>
<path opacity="0.2" d="M108.923 206.377L109.189 210.497L109.454 214.605L109.604 216.92C109.61 217.011 109.732 217.012 109.726 216.92L109.46 212.8L109.195 208.692L109.045 206.377C109.039 206.286 108.917 206.285 108.923 206.377Z" fill="black"/>
<path opacity="0.2" d="M111.237 206.857L111.397 210.627C111.451 211.883 111.179 213.14 111.233 214.396L111.323 216.513C111.327 216.604 111.448 216.605 111.445 216.513C111.391 215.256 111.663 214 111.609 212.743L111.449 208.974L111.359 206.857C111.355 206.765 111.233 206.765 111.237 206.857Z" fill="black"/>
<path d="M104.172 196.529C104.43 196.529 104.639 196.359 104.639 196.148C104.639 195.937 104.43 195.766 104.172 195.766C103.914 195.766 103.704 195.937 103.704 196.148C103.704 196.359 103.914 196.529 104.172 196.529Z" fill="#E6E6E6"/>
<path d="M107.139 197.388C107.397 197.388 107.606 197.217 107.606 197.007C107.606 196.796 107.397 196.625 107.139 196.625C106.881 196.625 106.672 196.796 106.672 197.007C106.672 197.217 106.881 197.388 107.139 197.388Z" fill="#3F3D56"/>
<path d="M102.993 199.249C103.251 199.249 103.46 199.078 103.46 198.867C103.46 198.656 103.251 198.485 102.993 198.485C102.735 198.485 102.526 198.656 102.526 198.867C102.526 199.078 102.735 199.249 102.993 199.249Z" fill="#FF6584"/>
<path d="M106.858 199.752C107.022 199.752 107.154 199.644 107.154 199.51C107.154 199.377 107.022 199.269 106.858 199.269C106.695 199.269 106.563 199.377 106.563 199.51C106.563 199.644 106.695 199.752 106.858 199.752Z" fill="#E6E6E6"/>
<path d="M108.734 200.294C108.897 200.294 109.029 200.186 109.029 200.053C109.029 199.92 108.897 199.812 108.734 199.812C108.57 199.812 108.438 199.92 108.438 200.053C108.438 200.186 108.57 200.294 108.734 200.294Z" fill="#3F3D56"/>
<path d="M106.113 201.47C106.276 201.47 106.409 201.362 106.409 201.229C106.409 201.096 106.276 200.988 106.113 200.988C105.95 200.988 105.818 201.096 105.818 201.229C105.818 201.362 105.95 201.47 106.113 201.47Z" fill="#FF6584"/>
<path d="M109.622 201.088C109.785 201.088 109.918 200.98 109.918 200.846C109.918 200.713 109.785 200.605 109.622 200.605C109.459 200.605 109.327 200.713 109.327 200.846C109.327 200.98 109.459 201.088 109.622 201.088Z" fill="#E6E6E6"/>
<path d="M111.498 201.63C111.661 201.63 111.793 201.522 111.793 201.389C111.793 201.256 111.661 201.148 111.498 201.148C111.334 201.148 111.202 201.256 111.202 201.389C111.202 201.522 111.334 201.63 111.498 201.63Z" fill="#3F3D56"/>
<path d="M108.877 202.806C109.04 202.806 109.173 202.698 109.173 202.565C109.173 202.432 109.04 202.324 108.877 202.324C108.714 202.324 108.582 202.432 108.582 202.565C108.582 202.698 108.714 202.806 108.877 202.806Z" fill="#FF6584"/>
<path d="M102.008 199.815C102.03 199.626 101.957 199.457 101.844 199.439C101.732 199.421 101.623 199.56 101.6 199.749C101.578 199.939 101.651 200.108 101.764 200.126C101.876 200.144 101.985 200.005 102.008 199.815Z" fill="#E6E6E6"/>
<path d="M101.293 201.922C101.316 201.732 101.243 201.563 101.13 201.545C101.018 201.527 100.909 201.666 100.886 201.856C100.864 202.045 100.937 202.214 101.05 202.232C101.162 202.25 101.271 202.111 101.293 201.922Z" fill="#3F3D56"/>
<path d="M100.659 198.714C100.681 198.525 100.608 198.356 100.495 198.338C100.383 198.32 100.274 198.459 100.252 198.649C100.229 198.838 100.302 199.007 100.415 199.025C100.527 199.043 100.636 198.904 100.659 198.714Z" fill="#FF6584"/>
<path d="M105.218 198.67C105.241 198.481 105.168 198.312 105.055 198.294C104.943 198.276 104.834 198.415 104.811 198.605C104.789 198.794 104.862 198.963 104.975 198.981C105.087 198.999 105.196 198.86 105.218 198.67Z" fill="#E6E6E6"/>
<path d="M104.504 200.777C104.527 200.587 104.454 200.418 104.341 200.4C104.229 200.382 104.119 200.521 104.097 200.711C104.075 200.9 104.148 201.069 104.26 201.087C104.373 201.105 104.482 200.966 104.504 200.777Z" fill="#3F3D56"/>
<path d="M103.87 197.57C103.892 197.38 103.819 197.211 103.706 197.193C103.594 197.175 103.485 197.314 103.462 197.504C103.44 197.693 103.513 197.862 103.626 197.88C103.738 197.898 103.847 197.759 103.87 197.57Z" fill="#FF6584"/>
<path d="M106.089 196.339C106.111 196.149 106.038 195.981 105.925 195.963C105.813 195.944 105.704 196.083 105.681 196.273C105.659 196.463 105.732 196.631 105.845 196.649C105.957 196.668 106.066 196.529 106.089 196.339Z" fill="#3F3D56"/>
<path d="M105.455 193.133C105.477 192.943 105.404 192.775 105.292 192.756C105.179 192.738 105.07 192.877 105.048 193.067C105.025 193.257 105.098 193.425 105.211 193.443C105.323 193.462 105.433 193.322 105.455 193.133Z" fill="#FF6584"/>
<path d="M219.199 155.487C221.588 155.487 223.524 153.906 223.524 151.956C223.524 150.006 221.588 148.425 219.199 148.425C216.811 148.425 214.875 150.006 214.875 151.956C214.875 153.906 216.811 155.487 219.199 155.487Z" fill="#E6E6E6"/>
<path d="M246.651 163.432C249.039 163.432 250.975 161.851 250.975 159.901C250.975 157.951 249.039 156.37 246.651 156.37C244.262 156.37 242.326 157.951 242.326 159.901C242.326 161.851 244.262 163.432 246.651 163.432Z" fill="#3F3D56"/>
<path d="M208.294 180.645C210.683 180.645 212.619 179.064 212.619 177.114C212.619 175.164 210.683 173.583 208.294 173.583C205.906 173.583 203.97 175.164 203.97 177.114C203.97 179.064 205.906 180.645 208.294 180.645Z" fill="#FF6584"/>
<path d="M269.625 197.657C271.135 197.657 272.358 196.658 272.358 195.425C272.358 194.193 271.135 193.194 269.625 193.194C268.116 193.194 266.892 194.193 266.892 195.425C266.892 196.658 268.116 197.657 269.625 197.657Z" fill="#E6E6E6"/>
<path d="M286.974 202.678C288.484 202.678 289.707 201.679 289.707 200.446C289.707 199.214 288.484 198.215 286.974 198.215C285.465 198.215 284.241 199.214 284.241 200.446C284.241 201.679 285.465 202.678 286.974 202.678Z" fill="#3F3D56"/>
<path d="M199.174 185.885C199.38 184.13 198.704 182.571 197.663 182.403C196.623 182.235 195.613 183.521 195.407 185.276C195.201 187.031 195.877 188.59 196.917 188.758C197.958 188.927 198.968 187.64 199.174 185.885Z" fill="#E6E6E6"/>
<path d="M192.569 205.373C192.775 203.618 192.099 202.059 191.059 201.891C190.019 201.722 189.009 203.009 188.802 204.764C188.596 206.519 189.273 208.078 190.313 208.246C191.353 208.415 192.363 207.128 192.569 205.373Z" fill="#3F3D56"/>
<path d="M186.696 175.702C186.902 173.947 186.226 172.388 185.186 172.22C184.146 172.051 183.135 173.338 182.929 175.093C182.723 176.848 183.4 178.407 184.44 178.575C185.48 178.744 186.49 177.457 186.696 175.702Z" fill="#FF6584"/>
<path d="M228.883 175.293C229.089 173.538 228.412 171.979 227.372 171.811C226.332 171.643 225.322 172.929 225.116 174.684C224.91 176.439 225.586 177.998 226.626 178.167C227.666 178.335 228.677 177.048 228.883 175.293Z" fill="#E6E6E6"/>
<path d="M216.404 165.109C216.61 163.354 215.933 161.795 214.893 161.627C213.853 161.459 212.843 162.745 212.637 164.5C212.431 166.255 213.107 167.814 214.147 167.983C215.187 168.151 216.198 166.864 216.404 165.109Z" fill="#FF6584"/>
<path d="M331.905 336.175C332.654 336.216 333.29 335.535 333.324 334.655C333.343 334.185 333.184 333.73 332.889 333.411C332.855 333.251 332.831 333.136 332.796 332.977C333.535 330.775 335.654 329.692 337.53 330.559C338.45 330.984 339.184 331.83 339.564 332.902C341.174 337.326 343.258 341.906 342.222 346.778C349.068 329.748 346.74 308.564 336.622 294C333.734 292.198 331.667 288.999 330.969 285.249C332.353 285.799 334.078 284.478 333.038 282.766C332.587 282.112 332.131 281.464 331.68 280.81C336.938 274.237 343.202 284.566 337.415 293.437C339.308 296.223 340.948 299.233 342.308 302.419C341.994 299.036 342.369 295.614 343.401 292.434C344.448 289.47 346.41 286.974 348.138 284.412C349.415 282.49 351.778 282.147 353.415 283.647C354.226 284.39 354.743 285.49 354.844 286.692C352.906 287.44 352.654 290.727 354.871 291.176C354.185 298.661 350.287 305.215 344.538 308.551C346.625 315.423 347.439 322.737 346.928 330.007C347.925 321.511 355.696 319.449 361.127 316.072C362.111 315.332 363.419 315.667 364.05 316.822C364.336 317.345 364.444 317.975 364.353 318.587C363.604 318.945 362.886 319.389 362.212 319.913C361.365 320.581 361.14 321.928 361.709 322.922C362.019 323.461 362.518 323.81 363.07 323.87C360.332 331.823 353.254 337.163 345.985 337.133C345.286 340.696 344.274 344.164 342.964 347.482H332.175C332.136 347.341 332.102 347.196 332.067 347.055C333.065 347.129 334.068 347.059 335.052 346.846C332.41 343.175 330.367 341.301 331.905 336.175Z" fill="#F2F2F2"/>
<path d="M120.647 335.985C119.898 336.026 119.262 335.345 119.227 334.466C119.209 333.996 119.368 333.541 119.662 333.221L119.756 332.787C119.017 330.585 116.898 329.503 115.022 330.37C114.101 330.795 113.368 331.64 112.988 332.712C111.378 337.136 109.294 341.716 110.33 346.589C103.484 329.558 105.812 308.374 115.93 293.81C118.818 292.009 120.885 288.809 121.583 285.059C120.199 285.609 118.474 284.288 119.514 282.577C119.965 281.923 120.421 281.274 120.872 280.62C115.614 274.048 109.35 284.377 115.137 293.247C113.244 296.033 111.604 299.044 110.244 302.23C110.558 298.847 110.183 295.424 109.151 292.244C108.104 289.28 106.142 286.784 104.414 284.222C103.137 282.3 100.774 281.958 99.1368 283.457C98.3255 284.2 97.809 285.301 97.7077 286.502C99.6463 287.25 99.8981 290.537 97.6806 290.987C98.3668 298.471 102.264 305.025 108.014 308.362C105.927 315.233 105.112 322.547 105.624 329.817C104.626 321.321 96.8561 319.259 91.4249 315.882C90.4414 315.142 89.1327 315.478 88.502 316.632C88.2162 317.155 88.1078 317.785 88.1984 318.397C88.948 318.755 89.6655 319.199 90.3403 319.724C91.1867 320.392 91.4116 321.739 90.8424 322.732C90.5333 323.272 90.034 323.62 89.4823 323.681C92.22 331.633 99.2979 336.973 106.567 336.943C107.266 340.506 108.278 343.975 109.588 347.292H120.377C120.415 347.151 120.45 347.006 120.485 346.865C119.486 346.939 118.484 346.869 117.5 346.657C120.142 342.985 122.185 341.111 120.647 335.985Z" fill="#F2F2F2"/>
<path d="M147.679 187.731L146.531 179.924L163.979 170.677L167.746 162.847C167.382 160.788 168.508 158.772 170.262 158.345C172.016 157.917 173.733 159.239 174.098 161.297C174.383 162.909 173.754 164.554 172.537 165.374L166.339 176.621L147.679 187.731Z" fill="#A0616A"/>
<path d="M142.375 181.348L150.232 176.638L152.312 185.805L146.855 190.553L142.375 181.348Z" fill="#3F3D56"/>
<path d="M124.744 337.156H129.495L131.755 315.648H124.744L124.744 337.156Z" fill="#A0616A"/>
<path d="M131.076 337.658V333.877L129.827 333.967L124.743 334.32L123.566 334.405L122.667 347.065L122.619 347.744H125.992L126.1 347.07L126.59 344.006L127.855 347.07L128.132 347.744H137.075C138.183 347.736 139.079 346.683 139.083 345.383C139.461 343.314 132.024 338.841 131.076 337.658Z" fill="#2F2E41"/>
<path d="M68.4668 317.08L72.3508 320.291L84.7514 304.236L79.019 299.497L68.4668 317.08Z" fill="#A0616A"/>
<path d="M73.5355 321.36L75.3903 318.27L74.3254 317.499L69.9957 314.351L68.9922 313.625L62.0448 323.367L61.6724 323.889L64.43 326.17L64.8494 325.692L66.7532 323.519L66.284 326.878L66.1798 327.616L73.491 333.662C74.4005 334.404 75.6493 334.148 76.2911 333.088C77.615 331.652 73.7298 322.968 73.5355 321.36Z" fill="#2F2E41"/>
<path d="M132.09 197.961L125.975 194.606L113.781 211.927L106.353 214.132C104.757 213.177 102.804 213.921 101.99 215.795C101.177 217.668 101.811 219.961 103.407 220.915C104.657 221.663 106.175 221.383 107.169 220.221L118.045 216.164L132.09 197.961Z" fill="#A0616A"/>
<path d="M125.925 225.861C125.925 225.861 115.892 233.529 118.545 238.625C118.636 238.801 97.1741 273.773 97.1741 273.773L73.1074 304.228L81.3803 313.055C81.3803 313.055 104.244 285.111 108.079 280.394C111.915 275.677 128.668 252.078 128.668 252.078L129.284 281.242L122.871 321.655L132.447 320.942L141.767 280.398L145.207 234.472L125.925 225.861Z" fill="#2F2E41"/>
<path d="M133.072 179.841L128.853 183.593L124.044 195.64L128.668 203.011C128.668 203.011 132.558 210.923 126.332 218.586C120.105 226.248 115.324 234.432 120.308 234.14C125.291 233.848 145.474 245.897 145.607 236.025C145.74 226.154 146.009 218.586 146.009 218.586L151.3 202.833C151.3 202.833 154.453 193.436 152.24 190.623C150.026 187.81 147.063 184.215 147.063 184.215L141.673 177.889H136.807L133.072 179.841Z" fill="#3F3D56"/>
<path d="M140.947 156.695C150.413 163.016 142.642 179.696 133.001 173.757C123.536 167.435 131.306 150.755 140.947 156.695Z" fill="#A0616A"/>
<path d="M146.009 160.2C145.346 161.212 143.96 160.737 141.247 161.46C141.252 160.38 141.146 159.304 140.93 158.255C140.728 159.554 140.286 160.785 139.634 161.862C137.278 162.169 140.166 170.57 138.96 176.747C137.405 163.715 134.136 167.13 135.788 169.714C136.845 171.369 136.14 176.333 132.968 173.851C127.734 176.771 120.28 162.268 128.542 155.467C128.394 151.79 131.879 151.21 134.025 152.34C139.234 147.786 145.184 153.621 146.009 160.2Z" fill="#2F2E41"/>
<path d="M121.723 150.691C119.616 165.898 108.321 147.894 103.01 162.86C101.34 168.279 104.205 172.156 106.017 176.655C106.431 180.351 102.333 182.227 101.904 185.63C101.785 193.432 112.509 192.954 115.507 188.032C118.587 182.88 114.909 175.966 116.76 170.436C119.362 162.757 129.945 162.7 130.867 153.766C129.082 150.782 124.281 147.364 121.723 150.691Z" fill="#2F2E41"/>
<path d="M130.26 152.177C130.191 152.211 130.122 152.245 130.06 152.283H130.057C129.999 152.318 129.941 152.352 129.883 152.39C129.875 152.394 129.872 152.398 129.864 152.403C129.788 152.318 129.712 152.232 129.632 152.147C129.612 152.286 129.617 152.428 129.647 152.565L129.658 152.616C129.73 152.705 129.806 152.79 129.886 152.88C129.959 152.816 130.028 152.748 130.1 152.684C130.144 152.641 130.187 152.599 130.235 152.556C130.242 152.445 130.253 152.318 130.264 152.177L130.26 152.177ZM132.444 147.441C130.826 147.007 130.303 149.49 130.147 150.687C129.56 146.343 127.114 147.71 127.96 150.674C128.229 151.551 128.653 152.352 129.204 153.025C129.28 153.127 129.364 153.229 129.451 153.331C129.353 153.927 129.846 153.774 130.514 153.225C131.007 152.813 131.463 152.344 131.875 151.824C133.206 150.184 134.244 147.991 132.444 147.441ZM132.495 149.886C131.996 150.641 131.436 151.339 130.822 151.968C130.63 152.173 130.434 152.369 130.235 152.556C130.231 152.594 130.231 152.628 130.227 152.658C130.213 152.7 130.196 152.74 130.176 152.778C129.973 153.208 129.745 152.973 129.658 152.616C129.65 152.603 129.639 152.59 129.632 152.577C129.342 152.226 129.09 151.834 128.881 151.411C127.383 148.361 129.796 146.287 129.676 151.981C129.654 152.033 129.639 152.089 129.632 152.147C129.612 152.286 129.617 152.428 129.647 152.565L129.658 152.616C129.73 152.705 129.806 152.79 129.886 152.88C129.959 152.816 130.028 152.748 130.1 152.684C130.144 152.641 130.187 152.599 130.235 152.556C130.242 152.445 130.253 152.318 130.264 152.177L130.264 152.173C130.358 151.032 130.615 148.979 131.091 148.421C132.136 147.48 133.489 148.498 132.495 149.886ZM130.26 152.177C130.191 152.211 130.122 152.245 130.06 152.283H130.057C129.999 152.318 129.941 152.352 129.883 152.39C129.875 152.394 129.872 152.398 129.864 152.403C129.788 152.318 129.712 152.232 129.632 152.147C129.612 152.286 129.617 152.428 129.647 152.565L129.658 152.616C129.73 152.705 129.806 152.79 129.886 152.88C129.959 152.816 130.028 152.748 130.1 152.684C130.144 152.641 130.187 152.599 130.235 152.556C130.242 152.445 130.253 152.318 130.264 152.177L130.26 152.177Z" fill="#2F2E41"/>
<path d="M329.581 338.049L324.934 339.29L318.645 318.844L325.503 317.013L329.581 338.049Z" fill="#FFB6B6"/>
<path d="M330.848 343.694L316.559 347.51L316.518 347.298C315.819 343.693 317.743 340.105 320.814 339.285L322.974 336.264L328.294 337.287L329.541 336.954L330.848 343.694Z" fill="#2F2E41"/>
<path d="M390.171 327.301L386.159 330.317L374.338 313.583L380.261 309.132L390.171 327.301Z" fill="#FFB6B6"/>
<path d="M392.994 332.109L380.653 341.383L380.553 341.199C378.854 338.086 379.628 333.946 382.281 331.952L383.44 328.25L388.741 327.097L389.818 326.288L392.994 332.109Z" fill="#2F2E41"/>
<path d="M326.488 236.202L322.993 246.902L306.594 284.869L321.003 329.035L328.44 326.731L322.311 284.869L339.896 259.79L350.105 285.557L379.437 323.514L386.206 318.218L364.395 278.936L349.871 229.121L326.488 236.202Z" fill="#2F2E41"/>
<path d="M344.127 185.73L338.372 178.473L328.501 176.879L316.406 186.817L316.528 197.818L322.507 223.739C322.507 223.739 320.23 242.362 326.591 242.175C332.952 241.988 336.419 238.266 339.01 239.024C341.601 239.781 352.615 243.006 353.312 239.628C354.01 236.251 357.721 238.669 357.558 235.474C357.395 232.278 347.514 209.245 347.514 209.245L349.243 193.031C349.623 189.464 347.468 186.211 344.429 185.764C344.329 185.749 344.228 185.738 344.127 185.73Z" fill="#3F3D56"/>
<path d="M383.837 231.449C381.933 231.924 380.062 230.496 379.658 228.261C379.615 228.023 379.59 227.781 379.583 227.537L353.125 215.311L358.16 210.469L383.243 223.218C385.199 223.295 386.732 225.219 386.666 227.515C386.611 229.436 385.442 231.063 383.837 231.449Z" fill="#FFB6B6"/>
<path d="M346.363 187.075C346.363 187.075 341.856 187.034 341.303 193.056C340.749 199.077 350.199 214.35 351.66 216.865C352.117 217.652 354.082 218.548 356.566 219.407C357.681 219.793 358.9 220.171 360.135 220.529C360.849 220.736 361.169 222.126 361.876 222.317C362.579 222.507 363.67 221.497 364.332 221.666C367.474 222.466 369.957 223 369.957 223L375.831 218.302C372.867 213.167 367.199 211.066 360.777 209.81L346.363 187.075Z" fill="#3F3D56"/>
<path d="M280.044 159.11C280.341 161.368 282.141 162.917 284.065 162.569C284.27 162.532 284.472 162.474 284.668 162.395L303.779 187.107L305.853 179.866L286.814 156.847C286.059 154.728 283.984 153.727 282.178 154.612C280.667 155.353 279.785 157.212 280.044 159.11Z" fill="#FFB6B6"/>
<path d="M328.671 184.531C328.671 184.531 330.3 189.464 325.698 192.204C321.096 194.943 305.581 189.979 303.06 189.266C302.27 189.043 300.861 187.203 299.297 184.781C298.594 183.694 297.861 182.489 297.139 181.261C296.721 180.55 295.5 180.692 295.098 179.983C294.698 179.278 295.115 177.723 294.747 177.056C292.997 173.891 291.692 171.354 291.692 171.354L293.356 163.243C298.497 164.678 302.178 170.156 305.453 176.76L328.671 184.531Z" fill="#3F3D56"/>
<path d="M333.634 175.033C338.821 175.033 343.026 170.098 343.026 164.01C343.026 157.922 338.821 152.986 333.634 152.986C328.447 152.986 324.242 157.922 324.242 164.01C324.242 170.098 328.447 175.033 333.634 175.033Z" fill="#FFB6B6"/>
<path d="M344.355 157.698C343.373 155.839 341.568 154.807 339.716 155.044C339.211 150.981 335.995 148.167 332.533 148.759C331.246 148.98 330.047 149.66 329.101 150.707C328.537 150.241 327.806 150.155 327.174 150.481C326.556 150.811 326.018 151.318 325.609 151.955C323.508 155.031 323.018 159.214 324.334 162.841C324.114 161.904 324.914 161.022 325.723 160.812C326.531 160.601 327.379 160.8 328.199 160.663C329.25 160.488 330.195 159.772 331.247 159.611C332.14 159.543 333.035 159.678 333.884 160.009C334.733 160.34 335.627 160.481 336.52 160.424C337.406 160.301 338.547 164.241 338.531 167.017C338.529 167.542 338.621 168.218 339.059 168.329C339.598 168.467 339.91 167.593 340.424 167.355C340.915 167.19 341.43 167.511 341.589 168.082C341.72 168.649 341.61 169.255 341.293 169.709C340.977 170.154 340.603 170.535 340.184 170.839L340.395 171.045C340.809 171.558 341.475 171.656 341.983 171.277C342.468 170.891 342.86 170.367 343.123 169.753C344.114 167.955 344.822 165.963 345.214 163.871C345.601 161.76 345.294 159.555 344.355 157.698Z" fill="#2F2E41"/>
<path d="M236.942 153.733C237.149 151.978 236.472 150.419 235.432 150.251C234.392 150.082 233.382 151.369 233.176 153.124C232.97 154.879 233.646 156.438 234.686 156.606C235.726 156.775 236.736 155.488 236.942 153.733Z" fill="#3F3D56"/>
<path d="M390.632 229.03H378.195C377.861 229.03 376.02 227.887 376.02 226.477V218.369C375.961 212.235 393.068 211.834 393.132 218.369V226.477C393.132 227.887 391.833 229.03 390.632 229.03Z" fill="#E6E6E6"/>
<path d="M391.275 212.872C390.672 212.619 390.031 212.511 389.392 212.555C389.563 212.489 389.72 212.381 389.853 212.238C389.736 212.233 389.62 212.214 389.506 212.183C389.38 212.156 389.262 212.094 389.161 212.002C389.059 211.908 389.004 211.76 389.016 211.608C389.039 211.423 389.187 211.27 389.172 211.083C389.154 210.87 388.944 210.766 388.832 210.596C388.691 210.334 388.715 209.994 388.891 209.762C388.998 209.616 389.129 209.497 389.276 209.411C389.028 209.336 388.767 209.341 388.52 209.424C388.784 209.184 388.902 208.783 388.819 208.404C388.679 207.931 388.348 207.571 387.936 207.444C387.53 207.324 387.109 207.284 386.692 207.326C387.047 207.198 386.993 206.545 386.722 206.248C386.451 205.95 386.062 205.826 385.807 205.51C385.551 205.194 385.571 204.52 385.94 204.467L385.895 204.314C385.161 203.992 384.343 204.429 384.069 205.291C384.045 205.365 384.027 205.441 384.012 205.517C383.945 206.011 384.07 206.558 383.859 206.992C383.59 207.546 382.937 207.609 382.396 207.547C381.865 207.388 381.302 207.478 380.827 207.799C380.434 208.183 380.381 208.868 380.708 209.329C380.889 209.585 381.161 209.729 381.445 209.72C381.089 209.723 380.734 209.778 380.39 209.883L380.722 210.034C380.796 210.061 380.864 210.106 380.921 210.166C380.98 210.229 380.998 210.328 380.966 210.413C380.913 210.526 380.776 210.522 380.667 210.503L379.946 210.375C380.09 210.432 380.167 210.614 380.119 210.782C380.072 210.95 379.917 211.041 379.773 210.985C379.736 210.971 379.703 210.947 379.674 210.916C379.748 211.018 379.808 211.133 379.85 211.257C379.893 211.383 379.88 211.525 379.817 211.639C379.67 211.797 379.455 211.827 379.28 211.716C379.221 211.689 379.162 211.658 379.103 211.63C379.104 211.655 379.106 211.679 379.108 211.704C379.148 212.029 379.302 212.319 379.533 212.504C379.207 212.549 378.906 212.735 378.689 213.026C378.314 213.573 378.291 214.345 378.634 214.921C378.27 214.733 377.871 214.655 377.475 214.696C377.068 214.755 376.763 215.162 376.765 215.644C376.831 216.234 377.453 216.45 377.956 216.523C381.912 217.094 385.912 217.093 389.867 216.521C390.404 216.478 390.931 216.321 391.42 216.057C391.915 215.782 392.256 215.229 392.323 214.591C392.301 213.823 391.888 213.144 391.275 212.872Z" fill="#E09143"/>
<path d="M394.211 219.706C394.121 219.247 393.772 218.923 393.37 218.925C392.988 218.937 392.646 219.257 392.271 219.187C391.959 219.129 391.715 218.809 391.401 218.858C391.114 218.903 390.96 219.232 390.745 219.409H390.195C389.981 219.211 389.876 218.811 389.579 218.698C389.132 218.529 388.773 219.121 388.304 219.226C388.033 219.261 387.759 219.2 387.518 219.05C387.282 218.9 387.026 218.798 386.761 218.749C386.523 218.707 386.285 218.829 386.151 219.064C386.165 218.896 385.98 218.732 385.791 218.721C385.581 218.73 385.376 218.804 385.198 218.936C385.018 219.067 384.811 219.137 384.6 219.136C384.132 219.088 383.903 218.447 383.432 218.44C382.84 218.431 382.603 219.421 382.017 219.337C381.713 219.293 381.548 218.968 381.277 218.829C380.988 218.726 380.681 218.722 380.391 218.819L379.006 219.124C378.6 219.255 378.171 219.26 377.763 219.138C377.466 219.012 377.177 218.739 376.871 218.843C376.604 218.933 376.474 219.284 376.191 219.302C376.011 219.275 375.837 219.206 375.68 219.097C375.38 218.972 375.046 219.071 374.833 219.348C374.678 220.089 374.653 220.86 374.759 221.613C374.755 221.774 374.766 221.935 374.792 222.092L376.185 228.637C376.349 229.64 376.772 230.366 377.642 230.366H391.185C392.055 230.366 392.803 229.64 392.967 228.637L394.36 222.092C394.363 222.075 394.365 222.059 394.367 222.042C394.4 221.258 394.348 220.473 394.211 219.706Z" fill="#CCCCCC"/>
<path opacity="0.2" d="M377.654 219.213L377.924 223.344C378.015 224.721 377.881 226.079 377.971 227.456C378.022 228.232 378.297 229.026 378.348 229.802C378.354 229.893 378.476 229.894 378.47 229.802L378.199 225.671L377.928 221.54L377.775 219.213C377.769 219.122 377.647 219.121 377.654 219.213Z" fill="black"/>
<path opacity="0.2" d="M380.005 219.377L380.111 223.448L380.216 227.518L380.276 229.803C380.278 229.895 380.4 229.896 380.398 229.803L380.292 225.733L380.187 221.662L380.127 219.377C380.125 219.285 380.003 219.285 380.005 219.377Z" fill="black"/>
<path opacity="0.2" d="M382.284 219.621L382.252 223.555L382.22 227.465L382.202 229.683C382.203 229.722 382.231 229.753 382.265 229.752C382.297 229.75 382.322 229.72 382.324 229.683L382.356 225.749L382.388 221.838L382.406 219.621C382.405 219.582 382.376 219.551 382.343 219.552C382.311 219.553 382.285 219.584 382.284 219.621Z" fill="black"/>
<path opacity="0.2" d="M384.005 219.501L384.072 223.483L384.138 227.442L384.176 229.684C384.177 229.723 384.205 229.754 384.239 229.753C384.271 229.752 384.297 229.721 384.298 229.684L384.231 225.701L384.165 221.742L384.127 219.501C384.126 219.461 384.098 219.43 384.064 219.432C384.032 219.433 384.006 219.463 384.005 219.501Z" fill="black"/>
<path opacity="0.2" d="M386.514 219.337L386.59 223.426L386.666 227.515L386.709 229.804C386.71 229.843 386.738 229.874 386.772 229.873C386.804 229.871 386.83 229.841 386.831 229.804L386.755 225.715L386.678 221.626L386.636 219.337C386.634 219.298 386.606 219.267 386.573 219.268C386.54 219.27 386.515 219.3 386.514 219.337Z" fill="black"/>
<path opacity="0.2" d="M388.596 219.461L388.862 223.581L389.127 227.689L389.277 230.004C389.282 230.095 389.404 230.096 389.398 230.004L389.132 225.884L388.867 221.776L388.718 219.461C388.712 219.37 388.59 219.369 388.596 219.461Z" fill="black"/>
<path opacity="0.2" d="M390.91 219.941L391.07 223.711C391.124 224.967 390.852 226.224 390.905 227.48L390.995 229.597C390.999 229.689 391.121 229.689 391.117 229.597C391.064 228.341 391.336 227.084 391.282 225.827L391.122 222.058L391.032 219.941C391.028 219.85 390.906 219.849 390.91 219.941Z" fill="black"/>
<path d="M383.844 209.614C384.103 209.614 384.312 209.443 384.312 209.232C384.312 209.021 384.103 208.85 383.844 208.85C383.586 208.85 383.377 209.021 383.377 209.232C383.377 209.443 383.586 209.614 383.844 209.614Z" fill="#E6E6E6"/>
<path d="M386.812 210.472C387.07 210.472 387.279 210.302 387.279 210.091C387.279 209.88 387.07 209.709 386.812 209.709C386.554 209.709 386.344 209.88 386.344 210.091C386.344 210.302 386.554 210.472 386.812 210.472Z" fill="#3F3D56"/>
<path d="M382.666 212.333C382.924 212.333 383.133 212.162 383.133 211.951C383.133 211.741 382.924 211.57 382.666 211.57C382.408 211.57 382.198 211.741 382.198 211.951C382.198 212.162 382.408 212.333 382.666 212.333Z" fill="#FF6584"/>
<path d="M386.531 212.836C386.694 212.836 386.826 212.728 386.826 212.595C386.826 212.462 386.694 212.354 386.531 212.354C386.368 212.354 386.236 212.462 386.236 212.595C386.236 212.728 386.368 212.836 386.531 212.836Z" fill="#E6E6E6"/>
<path d="M388.406 213.379C388.569 213.379 388.702 213.271 388.702 213.138C388.702 213.004 388.569 212.896 388.406 212.896C388.243 212.896 388.111 213.004 388.111 213.138C388.111 213.271 388.243 213.379 388.406 213.379Z" fill="#3F3D56"/>
<path d="M385.786 214.555C385.949 214.555 386.082 214.447 386.082 214.313C386.082 214.18 385.949 214.072 385.786 214.072C385.623 214.072 385.491 214.18 385.491 214.313C385.491 214.447 385.623 214.555 385.786 214.555Z" fill="#FF6584"/>
<path d="M389.295 214.172C389.458 214.172 389.59 214.064 389.59 213.931C389.59 213.797 389.458 213.689 389.295 213.689C389.132 213.689 389 213.797 389 213.931C389 214.064 389.132 214.172 389.295 214.172Z" fill="#E6E6E6"/>
<path d="M391.17 214.715C391.333 214.715 391.466 214.607 391.466 214.473C391.466 214.34 391.333 214.232 391.17 214.232C391.007 214.232 390.875 214.34 390.875 214.473C390.875 214.607 391.007 214.715 391.17 214.715Z" fill="#3F3D56"/>
<path d="M388.55 215.89C388.713 215.89 388.845 215.782 388.845 215.649C388.845 215.516 388.713 215.408 388.55 215.408C388.387 215.408 388.255 215.516 388.255 215.649C388.255 215.782 388.387 215.89 388.55 215.89Z" fill="#FF6584"/>
<path d="M381.68 212.9C381.702 212.71 381.629 212.541 381.517 212.523C381.404 212.505 381.295 212.644 381.273 212.834C381.251 213.023 381.324 213.192 381.436 213.21C381.549 213.228 381.658 213.089 381.68 212.9Z" fill="#E6E6E6"/>
<path d="M380.964 215.005C380.986 214.815 380.913 214.647 380.801 214.629C380.688 214.611 380.579 214.75 380.557 214.939C380.535 215.129 380.608 215.298 380.72 215.316C380.833 215.334 380.942 215.195 380.964 215.005Z" fill="#3F3D56"/>
<path d="M380.331 211.799C380.354 211.609 380.28 211.441 380.168 211.422C380.056 211.404 379.946 211.543 379.924 211.733C379.902 211.923 379.975 212.091 380.087 212.109C380.2 212.128 380.309 211.988 380.331 211.799Z" fill="#FF6584"/>
<path d="M384.891 211.755C384.913 211.565 384.84 211.396 384.728 211.378C384.615 211.36 384.506 211.499 384.484 211.689C384.462 211.878 384.535 212.047 384.647 212.065C384.76 212.083 384.869 211.944 384.891 211.755Z" fill="#E6E6E6"/>
<path d="M384.177 213.861C384.199 213.671 384.126 213.503 384.014 213.484C383.901 213.466 383.792 213.605 383.77 213.795C383.748 213.985 383.821 214.153 383.933 214.171C384.046 214.19 384.155 214.051 384.177 213.861Z" fill="#3F3D56"/>
<path d="M383.542 210.654C383.564 210.464 383.491 210.295 383.379 210.277C383.267 210.259 383.157 210.398 383.135 210.588C383.113 210.778 383.186 210.946 383.298 210.964C383.411 210.983 383.52 210.843 383.542 210.654Z" fill="#FF6584"/>
<path d="M385.762 209.424C385.785 209.234 385.712 209.066 385.599 209.048C385.487 209.03 385.378 209.169 385.355 209.358C385.333 209.548 385.406 209.717 385.519 209.735C385.631 209.753 385.74 209.614 385.762 209.424Z" fill="#3F3D56"/>
<path d="M385.127 206.217C385.15 206.027 385.077 205.859 384.964 205.841C384.852 205.822 384.743 205.962 384.72 206.151C384.698 206.341 384.771 206.509 384.884 206.528C384.996 206.546 385.105 206.407 385.127 206.217Z" fill="#FF6584"/>
<path d="M472 348.234C471.561 349.761 0.473774 348.78 0 347.257C0.438534 345.727 471.526 346.708 472 348.234Z" fill="#CCCCCC"/>
<path d="M183.306 268.895C175.037 268.895 168.333 261.027 168.333 251.321C168.333 241.615 175.037 233.747 183.306 233.747C191.575 233.747 198.279 241.615 198.279 251.321C198.279 261.027 191.575 268.895 183.306 268.895Z" fill="#E6E6E6"/>
<path d="M189.214 249.587H184.783V244.387C184.783 243.429 184.122 242.653 183.306 242.653C182.49 242.653 181.829 243.429 181.829 244.387V249.587H177.398C176.582 249.587 175.921 250.364 175.921 251.321C175.921 252.278 176.582 253.054 177.398 253.054H181.829V258.255C181.831 259.213 182.494 259.987 183.31 259.985C184.123 259.982 184.781 259.209 184.783 258.255V253.054H189.214C190.03 253.054 190.691 252.278 190.691 251.321C190.691 250.363 190.03 249.587 189.214 249.587Z" fill="white"/>
<path d="M227.112 268.895C218.843 268.895 212.139 261.027 212.139 251.321C212.139 241.615 218.843 233.747 227.112 233.747C235.382 233.747 242.085 241.615 242.085 251.321C242.085 261.027 235.382 268.895 227.112 268.895Z" fill="#E6E6E6"/>
<path d="M233.02 249.587H221.204C220.389 249.587 219.727 250.364 219.727 251.321C219.727 252.278 220.389 253.055 221.204 253.055H233.02C233.836 253.055 234.497 252.278 234.497 251.321C234.497 250.364 233.836 249.587 233.02 249.587Z" fill="white"/>
<path d="M270.918 268.895C262.649 268.895 255.945 261.027 255.945 251.321C255.945 241.615 262.649 233.747 270.918 233.747C279.187 233.747 285.891 241.615 285.891 251.321C285.891 261.027 279.187 268.895 270.918 268.895Z" fill="#E09143"/>
<path d="M279.342 250.486L275.097 243.214C274.704 242.541 273.92 242.369 273.347 242.83C272.773 243.292 272.627 244.211 273.02 244.884L275.765 249.587H265.01C264.194 249.587 263.533 250.363 263.533 251.321C263.533 252.278 264.194 253.054 265.01 253.054H275.9L273.02 257.989C272.628 258.663 272.776 259.582 273.351 260.042C273.923 260.5 274.704 260.329 275.097 259.659L279.342 252.387C279.623 251.796 279.623 251.077 279.342 250.486Z" fill="white"/>
<path d="M162.162 61.0169H142.462C140.983 61.0169 139.783 62.4248 139.783 64.1615V64.1616C139.783 65.8983 140.983 67.3062 142.462 67.3062H162.162C163.642 67.3062 164.842 65.8983 164.842 64.1615C164.842 62.4248 163.642 61.0169 162.162 61.0169Z" fill="#E09143"/>
<path d="M174.889 73.5955H129.736C128.256 73.5955 127.057 75.0034 127.057 76.7401V76.7401C127.057 78.4768 128.256 79.8847 129.736 79.8847H174.889C176.368 79.8847 177.568 78.4768 177.568 76.7401C177.568 75.0034 176.368 73.5955 174.889 73.5955Z" fill="#E6E6E6"/>
<path d="M174.889 86.174H129.736C128.256 86.174 127.057 87.5819 127.057 89.3187V89.3187C127.057 91.0554 128.256 92.4633 129.736 92.4633H174.889C176.368 92.4633 177.568 91.0554 177.568 89.3187C177.568 87.5819 176.368 86.174 174.889 86.174Z" fill="#E6E6E6"/>
<path d="M172.104 153.697H170.959V103.291H89.3206V101.948H172.104V153.697Z" fill="#E6E6E6"/>
<path d="M76.5645 117.372C85.3446 117.372 92.4623 109.018 92.4623 98.7125C92.4623 88.4071 85.3446 80.053 76.5645 80.053C67.7844 80.053 60.6667 88.4071 60.6667 98.7125C60.6667 109.018 67.7844 117.372 76.5645 117.372Z" fill="#E6E6E6"/>
<path d="M74.3958 108.424C73.8391 108.424 73.315 108.116 72.9812 107.594L68.644 100.806C68.0581 99.8889 68.2164 98.5879 68.9978 97.9001C69.7791 97.2124 70.8875 97.3983 71.4735 98.3154L74.311 102.756L81.5988 89.9251C82.1406 88.9712 83.2385 88.7135 84.0512 89.3494C84.8638 89.9852 85.0834 91.274 84.5417 92.2278L75.8673 107.5C75.5489 108.06 75.0187 108.404 74.445 108.423C74.4286 108.424 74.4122 108.424 74.3958 108.424Z" fill="white"/>
<path d="M279.94 151.039H278.795V99.2905H361.579V100.634H279.94V151.039Z" fill="#E6E6E6"/>
<path d="M374.274 114.715C383.054 114.715 390.171 106.361 390.171 96.0553C390.171 85.7499 383.054 77.3958 374.274 77.3958C365.493 77.3958 358.376 85.7499 358.376 96.0553C358.376 106.361 365.493 114.715 374.274 114.715Z" fill="#E6E6E6"/>
<path d="M372.105 105.767C371.548 105.767 371.024 105.459 370.69 104.936L366.353 98.1487C365.765 97.2334 365.921 95.9319 366.701 95.2419C367.48 94.5519 368.589 94.7345 369.177 95.6499L369.182 95.6581L372.02 100.098L379.308 87.2678C379.85 86.314 380.947 86.0563 381.76 86.6921C382.573 87.328 382.792 88.6167 382.251 89.5706L373.576 104.842C373.258 105.403 372.728 105.747 372.154 105.766C372.137 105.766 372.121 105.767 372.105 105.767Z" fill="white"/>
<path d="M176.653 159.653H164.217C163.883 159.653 162.042 158.509 162.042 157.099V148.991C161.982 142.858 179.089 142.456 179.154 148.991V157.099C179.154 158.509 177.855 159.653 176.653 159.653Z" fill="#E6E6E6"/>
<path d="M177.297 143.494C176.693 143.241 176.053 143.133 175.413 143.178C175.584 143.111 175.741 143.003 175.874 142.86C175.758 142.855 175.641 142.837 175.527 142.805C175.402 142.778 175.283 142.716 175.182 142.624C175.08 142.53 175.026 142.382 175.037 142.23C175.061 142.045 175.208 141.892 175.193 141.706C175.176 141.492 174.966 141.388 174.853 141.218C174.712 140.956 174.736 140.616 174.912 140.385C175.019 140.238 175.15 140.119 175.297 140.033C175.049 139.959 174.788 139.963 174.542 140.046C174.806 139.806 174.923 139.405 174.84 139.026C174.701 138.553 174.37 138.193 173.958 138.066C173.551 137.946 173.131 137.906 172.713 137.948C173.068 137.82 173.015 137.168 172.743 136.87C172.472 136.572 172.084 136.448 171.828 136.132C171.572 135.816 171.593 135.142 171.962 135.09L171.916 134.936C171.182 134.614 170.365 135.052 170.09 135.913C170.067 135.987 170.048 136.063 170.034 136.14C169.966 136.633 170.092 137.18 169.881 137.614C169.612 138.168 168.958 138.231 168.417 138.17C167.886 138.01 167.323 138.1 166.848 138.421C166.455 138.805 166.402 139.49 166.729 139.951C166.911 140.207 167.182 140.351 167.466 140.342C167.11 140.345 166.756 140.4 166.412 140.505L166.743 140.656C166.817 140.683 166.885 140.728 166.943 140.788C167.001 140.851 167.019 140.95 166.988 141.035C166.935 141.148 166.798 141.144 166.689 141.125L165.968 140.998C166.111 141.054 166.189 141.236 166.141 141.404C166.093 141.572 165.938 141.663 165.795 141.607C165.758 141.593 165.724 141.569 165.696 141.538C165.77 141.64 165.829 141.755 165.872 141.879C165.914 142.005 165.902 142.147 165.839 142.261C165.692 142.419 165.476 142.449 165.302 142.338C165.243 142.311 165.184 142.28 165.124 142.252C165.126 142.277 165.127 142.301 165.13 142.326C165.169 142.651 165.324 142.941 165.555 143.126C165.228 143.171 164.927 143.357 164.711 143.648C164.336 144.195 164.313 144.967 164.655 145.543C164.292 145.355 163.893 145.277 163.497 145.318C163.09 145.377 162.784 145.784 162.787 146.266C162.853 146.856 163.475 147.072 163.978 147.145C167.933 147.716 171.933 147.716 175.888 147.143C176.426 147.1 176.952 146.943 177.441 146.679C177.936 146.404 178.277 145.851 178.344 145.213C178.323 144.445 177.91 143.767 177.297 143.494Z" fill="#E09143"/>
<path d="M180.233 150.328C180.143 149.869 179.793 149.545 179.392 149.547C179.01 149.559 178.668 149.879 178.293 149.809C177.981 149.751 177.736 149.431 177.423 149.48C177.136 149.525 176.981 149.854 176.767 150.031H176.217C176.003 149.833 175.898 149.433 175.601 149.32C175.153 149.151 174.795 149.743 174.326 149.848C174.055 149.883 173.781 149.822 173.54 149.672C173.304 149.522 173.048 149.42 172.783 149.371C172.545 149.329 172.307 149.451 172.172 149.686C172.187 149.518 172.001 149.354 171.813 149.343C171.602 149.352 171.398 149.426 171.219 149.558C171.04 149.689 170.833 149.759 170.622 149.758C170.154 149.71 169.924 149.069 169.454 149.062C168.862 149.053 168.625 150.043 168.039 149.959C167.734 149.915 167.57 149.59 167.298 149.451C167.01 149.348 166.702 149.344 166.413 149.441L165.027 149.746C164.621 149.877 164.193 149.882 163.785 149.76C163.488 149.634 163.199 149.361 162.893 149.465C162.626 149.555 162.495 149.906 162.213 149.924C162.032 149.897 161.858 149.828 161.702 149.719C161.402 149.594 161.068 149.693 160.855 149.97C160.7 150.711 160.675 151.482 160.781 152.235C160.777 152.396 160.788 152.557 160.813 152.714L162.207 159.259C162.37 160.263 162.793 160.988 163.664 160.988H177.206C178.077 160.988 178.825 160.263 178.989 159.259L180.382 152.714C180.385 152.698 180.387 152.681 180.389 152.664C180.422 151.881 180.37 151.096 180.233 150.328Z" fill="#CCCCCC"/>
<path opacity="0.2" d="M163.675 149.835L163.946 153.966C164.036 155.343 163.902 156.701 163.993 158.078C164.044 158.854 164.318 159.648 164.369 160.424C164.375 160.515 164.497 160.516 164.491 160.424L164.22 156.293L163.949 152.162L163.797 149.835C163.791 149.744 163.669 149.743 163.675 149.835Z" fill="black"/>
<path opacity="0.2" d="M166.027 149.999L166.132 154.07L166.238 158.14L166.297 160.426C166.3 160.517 166.421 160.518 166.419 160.426L166.314 156.355L166.208 152.284L166.149 149.999C166.146 149.907 166.024 149.907 166.027 149.999Z" fill="black"/>
<path opacity="0.2" d="M168.305 150.243L168.273 154.177L168.241 158.087L168.223 160.305C168.224 160.344 168.253 160.375 168.286 160.374C168.318 160.373 168.344 160.342 168.345 160.305L168.377 156.371L168.409 152.461L168.427 150.243C168.426 150.204 168.398 150.173 168.364 150.174C168.332 150.175 168.306 150.206 168.305 150.243Z" fill="black"/>
<path opacity="0.2" d="M170.027 150.123L170.093 154.105L170.16 158.064L170.197 160.306C170.198 160.345 170.227 160.376 170.26 160.375C170.292 160.374 170.318 160.343 170.319 160.306L170.252 156.323L170.186 152.365L170.149 150.123C170.147 150.083 170.119 150.052 170.085 150.054C170.053 150.055 170.028 150.085 170.027 150.123Z" fill="black"/>
<path opacity="0.2" d="M172.535 149.959L172.611 154.048L172.688 158.137L172.73 160.426C172.731 160.465 172.76 160.496 172.793 160.495C172.825 160.494 172.851 160.463 172.852 160.426L172.776 156.337L172.7 152.248L172.657 149.959C172.656 149.92 172.627 149.889 172.594 149.89C172.562 149.892 172.536 149.922 172.535 149.959Z" fill="black"/>
<path opacity="0.2" d="M174.617 150.083L174.883 154.203L175.149 158.311L175.298 160.626C175.304 160.718 175.426 160.718 175.42 160.626L175.154 156.506L174.889 152.399L174.739 150.083C174.733 149.992 174.611 149.991 174.617 150.083Z" fill="black"/>
<path opacity="0.2" d="M176.931 150.563L177.092 154.333C177.145 155.59 176.873 156.846 176.927 158.103L177.017 160.219C177.021 160.311 177.143 160.311 177.139 160.219C177.085 158.963 177.357 157.706 177.304 156.45L177.143 152.68L177.053 150.563C177.049 150.472 176.927 150.471 176.931 150.563Z" fill="black"/>
<path d="M169.866 140.236C170.124 140.236 170.334 140.065 170.334 139.854C170.334 139.643 170.124 139.473 169.866 139.473C169.608 139.473 169.399 139.643 169.399 139.854C169.399 140.065 169.608 140.236 169.866 140.236Z" fill="#E6E6E6"/>
<path d="M172.833 141.095C173.091 141.095 173.301 140.924 173.301 140.713C173.301 140.502 173.091 140.331 172.833 140.331C172.575 140.331 172.366 140.502 172.366 140.713C172.366 140.924 172.575 141.095 172.833 141.095Z" fill="#3F3D56"/>
<path d="M168.687 142.955C168.945 142.955 169.155 142.784 169.155 142.573C169.155 142.363 168.945 142.192 168.687 142.192C168.429 142.192 168.22 142.363 168.22 142.573C168.22 142.784 168.429 142.955 168.687 142.955Z" fill="#FF6584"/>
<path d="M172.552 143.458C172.716 143.458 172.848 143.35 172.848 143.217C172.848 143.084 172.716 142.976 172.552 142.976C172.389 142.976 172.257 143.084 172.257 143.217C172.257 143.35 172.389 143.458 172.552 143.458Z" fill="#E6E6E6"/>
<path d="M174.428 144.001C174.591 144.001 174.723 143.893 174.723 143.76C174.723 143.626 174.591 143.518 174.428 143.518C174.265 143.518 174.132 143.626 174.132 143.76C174.132 143.893 174.265 144.001 174.428 144.001Z" fill="#3F3D56"/>
<path d="M171.808 145.177C171.971 145.177 172.103 145.069 172.103 144.936C172.103 144.802 171.971 144.694 171.808 144.694C171.644 144.694 171.512 144.802 171.512 144.936C171.512 145.069 171.644 145.177 171.808 145.177Z" fill="#FF6584"/>
<path d="M175.316 144.794C175.48 144.794 175.612 144.686 175.612 144.553C175.612 144.42 175.48 144.312 175.316 144.312C175.153 144.312 175.021 144.42 175.021 144.553C175.021 144.686 175.153 144.794 175.316 144.794Z" fill="#E6E6E6"/>
<path d="M177.192 145.337C177.355 145.337 177.487 145.229 177.487 145.095C177.487 144.962 177.355 144.854 177.192 144.854C177.028 144.854 176.896 144.962 176.896 145.095C176.896 145.229 177.028 145.337 177.192 145.337Z" fill="#3F3D56"/>
<path d="M174.572 146.513C174.735 146.513 174.867 146.405 174.867 146.271C174.867 146.138 174.735 146.03 174.572 146.03C174.408 146.03 174.276 146.138 174.276 146.271C174.276 146.405 174.408 146.513 174.572 146.513Z" fill="#FF6584"/>
<path d="M167.702 143.522C167.724 143.332 167.651 143.163 167.538 143.145C167.426 143.127 167.317 143.266 167.294 143.456C167.272 143.646 167.345 143.814 167.458 143.832C167.57 143.85 167.679 143.711 167.702 143.522Z" fill="#E6E6E6"/>
<path d="M166.988 145.628C167.01 145.438 166.937 145.27 166.824 145.252C166.712 145.233 166.603 145.372 166.58 145.562C166.558 145.752 166.631 145.92 166.744 145.939C166.856 145.957 166.965 145.818 166.988 145.628Z" fill="#3F3D56"/>
<path d="M166.353 142.421C166.375 142.231 166.302 142.063 166.189 142.044C166.077 142.026 165.968 142.165 165.946 142.355C165.923 142.545 165.996 142.713 166.109 142.731C166.221 142.75 166.33 142.611 166.353 142.421Z" fill="#FF6584"/>
<path d="M170.913 142.377C170.935 142.187 170.862 142.018 170.749 142C170.637 141.982 170.528 142.121 170.505 142.311C170.483 142.501 170.556 142.669 170.669 142.687C170.781 142.705 170.89 142.566 170.913 142.377Z" fill="#E6E6E6"/>
<path d="M170.199 144.483C170.221 144.293 170.148 144.125 170.035 144.107C169.923 144.088 169.814 144.227 169.792 144.417C169.769 144.607 169.842 144.775 169.955 144.794C170.067 144.812 170.176 144.673 170.199 144.483Z" fill="#3F3D56"/>
<path d="M169.564 141.276C169.586 141.086 169.513 140.918 169.4 140.899C169.288 140.881 169.179 141.02 169.157 141.21C169.134 141.4 169.207 141.568 169.32 141.586C169.432 141.605 169.541 141.466 169.564 141.276Z" fill="#FF6584"/>
<path d="M171.782 140.046C171.805 139.856 171.732 139.687 171.619 139.669C171.507 139.651 171.398 139.79 171.375 139.98C171.353 140.169 171.426 140.338 171.539 140.356C171.651 140.374 171.76 140.235 171.782 140.046Z" fill="#3F3D56"/>
<path d="M171.149 136.839C171.171 136.649 171.098 136.481 170.986 136.463C170.873 136.445 170.764 136.584 170.742 136.773C170.719 136.963 170.793 137.132 170.905 137.15C171.017 137.168 171.127 137.029 171.149 136.839Z" fill="#FF6584"/>
<path d="M286.194 156.82H273.758C273.424 156.82 271.583 155.677 271.583 154.267V146.158C271.523 140.025 288.63 139.624 288.695 146.158V154.267C288.695 155.677 287.396 156.82 286.194 156.82Z" fill="#E6E6E6"/>
<path d="M286.838 140.662C286.235 140.409 285.594 140.301 284.955 140.345C285.126 140.279 285.283 140.171 285.416 140.028C285.299 140.022 285.183 140.004 285.069 139.973C284.943 139.945 284.825 139.883 284.723 139.792C284.622 139.698 284.567 139.55 284.579 139.398C284.602 139.212 284.75 139.06 284.734 138.873C284.717 138.659 284.507 138.555 284.394 138.386C284.253 138.123 284.278 137.783 284.454 137.552C284.561 137.406 284.691 137.287 284.838 137.201C284.59 137.126 284.329 137.131 284.083 137.214C284.347 136.974 284.464 136.573 284.381 136.193C284.242 135.721 283.911 135.361 283.499 135.234C283.093 135.114 282.672 135.074 282.254 135.116C282.609 134.988 282.556 134.335 282.285 134.038C282.013 133.74 281.625 133.616 281.369 133.3C281.113 132.984 281.134 132.31 281.503 132.257L281.457 132.103C280.723 131.781 279.906 132.219 279.632 133.081C279.608 133.155 279.589 133.23 279.575 133.307C279.507 133.801 279.633 134.347 279.422 134.782C279.153 135.336 278.499 135.399 277.959 135.337C277.428 135.177 276.864 135.267 276.389 135.589C275.996 135.973 275.943 136.658 276.27 137.119C276.452 137.375 276.724 137.519 277.007 137.509C276.651 137.512 276.297 137.567 275.953 137.673L276.284 137.824C276.358 137.85 276.426 137.895 276.484 137.955C276.542 138.018 276.56 138.117 276.529 138.203C276.476 138.316 276.339 138.312 276.23 138.292L275.509 138.165C275.653 138.221 275.73 138.403 275.682 138.572C275.634 138.74 275.479 138.831 275.336 138.775C275.299 138.76 275.265 138.737 275.237 138.706C275.311 138.807 275.37 138.922 275.413 139.046C275.456 139.172 275.443 139.315 275.38 139.429C275.233 139.586 275.017 139.617 274.843 139.505C274.784 139.479 274.725 139.448 274.666 139.42C274.667 139.444 274.668 139.469 274.671 139.493C274.711 139.818 274.865 140.109 275.096 140.294C274.769 140.339 274.468 140.525 274.252 140.816C273.877 141.363 273.854 142.135 274.196 142.711C273.833 142.522 273.434 142.445 273.038 142.486C272.631 142.545 272.326 142.952 272.328 143.434C272.394 144.024 273.016 144.239 273.519 144.312C277.474 144.884 281.475 144.883 285.43 144.311C285.967 144.268 286.493 144.111 286.983 143.847C287.478 143.572 287.818 143.019 287.885 142.381C287.864 141.612 287.451 140.934 286.838 140.662Z" fill="#E09143"/>
<path d="M289.774 147.496C289.684 147.037 289.335 146.712 288.933 146.714C288.551 146.726 288.209 147.047 287.834 146.976C287.522 146.918 287.278 146.599 286.964 146.648C286.677 146.692 286.523 147.022 286.308 147.199H285.758C285.544 147.001 285.439 146.6 285.142 146.488C284.695 146.319 284.336 146.911 283.867 147.016C283.596 147.051 283.322 146.99 283.081 146.84C282.845 146.689 282.589 146.587 282.324 146.539C282.086 146.497 281.848 146.619 281.714 146.853C281.728 146.686 281.543 146.521 281.354 146.511C281.144 146.52 280.939 146.594 280.761 146.725C280.581 146.857 280.374 146.926 280.163 146.926C279.695 146.878 279.466 146.236 278.995 146.229C278.403 146.221 278.166 147.211 277.58 147.126C277.276 147.083 277.111 146.758 276.84 146.619C276.551 146.515 276.244 146.512 275.954 146.609L274.569 146.913C274.163 147.045 273.734 147.05 273.326 146.928C273.029 146.801 272.74 146.528 272.434 146.632C272.167 146.723 272.037 147.074 271.754 147.092C271.574 147.065 271.4 146.995 271.243 146.887C270.943 146.762 270.609 146.861 270.396 147.137C270.241 147.879 270.216 148.65 270.322 149.403C270.318 149.564 270.329 149.724 270.355 149.882L271.748 156.427C271.912 157.43 272.335 158.156 273.205 158.156H286.748C287.618 158.156 288.366 157.43 288.53 156.427L289.923 149.882C289.926 149.865 289.928 149.848 289.93 149.831C289.963 149.048 289.911 148.263 289.774 147.496Z" fill="#CCCCCC"/>
<path opacity="0.2" d="M273.217 147.003L273.487 151.134C273.578 152.511 273.444 153.869 273.534 155.246C273.585 156.021 273.86 156.816 273.911 157.591C273.917 157.683 274.039 157.683 274.032 157.591L273.762 153.461L273.491 149.33L273.338 147.003C273.332 146.912 273.21 146.911 273.217 147.003Z" fill="black"/>
<path opacity="0.2" d="M275.568 147.167L275.674 151.237L275.779 155.308L275.838 157.593C275.841 157.685 275.963 157.685 275.96 157.593L275.855 153.523L275.749 149.452L275.69 147.167C275.688 147.075 275.566 147.074 275.568 147.167Z" fill="black"/>
<path opacity="0.2" d="M277.847 147.411L277.815 151.345L277.783 155.255L277.765 157.472C277.766 157.512 277.794 157.543 277.828 157.541C277.86 157.54 277.885 157.51 277.887 157.472L277.919 153.538L277.951 149.628L277.969 147.411C277.968 147.371 277.939 147.34 277.906 147.342C277.874 147.343 277.848 147.373 277.847 147.411Z" fill="black"/>
<path opacity="0.2" d="M279.568 147.29L279.635 151.273L279.701 155.232L279.738 157.473C279.74 157.513 279.768 157.544 279.802 157.543C279.834 157.541 279.859 157.511 279.86 157.473L279.794 153.491L279.727 149.532L279.69 147.29C279.689 147.251 279.66 147.22 279.627 147.221C279.595 147.223 279.569 147.253 279.568 147.29Z" fill="black"/>
<path opacity="0.2" d="M282.076 147.127L282.153 151.216L282.229 155.305L282.272 157.593C282.273 157.633 282.301 157.664 282.335 157.662C282.367 157.661 282.393 157.631 282.394 157.593L282.317 153.505L282.241 149.416L282.198 147.127C282.197 147.087 282.169 147.057 282.135 147.058C282.103 147.059 282.078 147.089 282.076 147.127Z" fill="black"/>
<path opacity="0.2" d="M284.159 147.251L284.425 151.371L284.69 155.479L284.839 157.794C284.845 157.885 284.967 157.886 284.961 157.794L284.695 153.674L284.43 149.566L284.281 147.251C284.275 147.16 284.153 147.159 284.159 147.251Z" fill="black"/>
<path opacity="0.2" d="M286.473 147.731L286.633 151.5C286.686 152.757 286.415 154.014 286.468 155.27L286.558 157.387C286.562 157.478 286.684 157.479 286.68 157.387C286.627 156.13 286.898 154.874 286.845 153.617L286.685 149.848L286.595 147.731C286.591 147.639 286.469 147.639 286.473 147.731Z" fill="black"/>
<path d="M279.407 137.403C279.666 137.403 279.875 137.233 279.875 137.022C279.875 136.811 279.666 136.64 279.407 136.64C279.149 136.64 278.94 136.811 278.94 137.022C278.94 137.233 279.149 137.403 279.407 137.403Z" fill="#E6E6E6"/>
<path d="M282.374 138.262C282.633 138.262 282.842 138.091 282.842 137.88C282.842 137.67 282.633 137.499 282.374 137.499C282.116 137.499 281.907 137.67 281.907 137.88C281.907 138.091 282.116 138.262 282.374 138.262Z" fill="#3F3D56"/>
<path d="M278.229 140.123C278.487 140.123 278.696 139.952 278.696 139.741C278.696 139.53 278.487 139.359 278.229 139.359C277.971 139.359 277.761 139.53 277.761 139.741C277.761 139.952 277.971 140.123 278.229 140.123Z" fill="#FF6584"/>
<path d="M282.094 140.626C282.257 140.626 282.389 140.518 282.389 140.385C282.389 140.251 282.257 140.143 282.094 140.143C281.931 140.143 281.799 140.251 281.799 140.385C281.799 140.518 281.931 140.626 282.094 140.626Z" fill="#E6E6E6"/>
<path d="M283.969 141.168C284.132 141.168 284.265 141.06 284.265 140.927C284.265 140.794 284.132 140.686 283.969 140.686C283.806 140.686 283.674 140.794 283.674 140.927C283.674 141.06 283.806 141.168 283.969 141.168Z" fill="#3F3D56"/>
<path d="M281.349 142.344C281.512 142.344 281.644 142.236 281.644 142.103C281.644 141.97 281.512 141.862 281.349 141.862C281.186 141.862 281.053 141.97 281.053 142.103C281.053 142.236 281.186 142.344 281.349 142.344Z" fill="#FF6584"/>
<path d="M284.858 141.962C285.021 141.962 285.153 141.854 285.153 141.72C285.153 141.587 285.021 141.479 284.858 141.479C284.695 141.479 284.562 141.587 284.562 141.72C284.562 141.854 284.695 141.962 284.858 141.962Z" fill="#E6E6E6"/>
<path d="M286.733 142.504C286.896 142.504 287.029 142.396 287.029 142.263C287.029 142.13 286.896 142.022 286.733 142.022C286.57 142.022 286.438 142.13 286.438 142.263C286.438 142.396 286.57 142.504 286.733 142.504Z" fill="#3F3D56"/>
<path d="M284.113 143.68C284.276 143.68 284.408 143.572 284.408 143.439C284.408 143.306 284.276 143.198 284.113 143.198C283.95 143.198 283.817 143.306 283.817 143.439C283.817 143.572 283.95 143.68 284.113 143.68Z" fill="#FF6584"/>
<path d="M277.243 140.689C277.265 140.499 277.192 140.331 277.08 140.313C276.967 140.295 276.858 140.434 276.836 140.623C276.813 140.813 276.887 140.982 276.999 141C277.111 141.018 277.221 140.879 277.243 140.689Z" fill="#E6E6E6"/>
<path d="M276.529 142.796C276.551 142.606 276.478 142.437 276.366 142.419C276.253 142.401 276.144 142.54 276.122 142.73C276.1 142.919 276.173 143.088 276.285 143.106C276.398 143.124 276.507 142.985 276.529 142.796Z" fill="#3F3D56"/>
<path d="M275.894 139.588C275.917 139.399 275.843 139.23 275.731 139.212C275.619 139.194 275.509 139.333 275.487 139.523C275.465 139.712 275.538 139.881 275.65 139.899C275.763 139.917 275.872 139.778 275.894 139.588Z" fill="#FF6584"/>
<path d="M280.454 139.544C280.476 139.355 280.403 139.186 280.291 139.168C280.178 139.15 280.069 139.289 280.047 139.478C280.025 139.668 280.098 139.837 280.21 139.855C280.323 139.873 280.432 139.734 280.454 139.544Z" fill="#E6E6E6"/>
<path d="M279.74 141.651C279.762 141.461 279.689 141.292 279.577 141.274C279.464 141.256 279.355 141.395 279.333 141.585C279.311 141.774 279.384 141.943 279.496 141.961C279.608 141.979 279.718 141.84 279.74 141.651Z" fill="#3F3D56"/>
<path d="M279.105 138.443C279.127 138.254 279.054 138.085 278.942 138.067C278.83 138.049 278.72 138.188 278.698 138.378C278.676 138.567 278.749 138.736 278.861 138.754C278.974 138.772 279.083 138.633 279.105 138.443Z" fill="#FF6584"/>
<path d="M281.323 137.213C281.346 137.023 281.273 136.855 281.16 136.837C281.048 136.819 280.939 136.958 280.916 137.147C280.894 137.337 280.967 137.506 281.08 137.524C281.192 137.542 281.301 137.403 281.323 137.213Z" fill="#3F3D56"/>
<path d="M280.69 134.007C280.713 133.817 280.64 133.649 280.527 133.63C280.415 133.612 280.306 133.751 280.283 133.941C280.261 134.131 280.334 134.299 280.447 134.317C280.559 134.336 280.668 134.196 280.69 134.007Z" fill="#FF6584"/>
</g>
<defs>
<clipPath id="clip0_313_3601">
<rect width="472" height="349" fill="white"/>
</clipPath>
</defs>
</svg>
